<svg width="108" height="109" viewBox="0 0 108 109" fill="none" xmlns="http://www.w3.org/2000/svg">
<path fill-rule="evenodd" clip-rule="evenodd" d="M53.951 0.274902C24.1725 0.274902 0.0322266 24.4152 0.0322266 54.1937C0.0322266 83.9722 24.1725 108.113 53.951 108.113C83.7296 108.113 107.87 83.9722 107.87 54.1937C107.87 24.4152 83.7296 0.274902 53.951 0.274902ZM59.5773 56.5621V85.8968H47.44V56.5633H41.3762V46.4544H47.44V40.385C47.44 32.1382 50.864 27.2343 60.5919 27.2343H68.6907V37.3444H63.6284C59.8416 37.3444 59.591 38.7571 59.591 41.3936L59.5773 46.4532H68.7481L67.6749 56.5621H59.5773Z" fill="#1E1E1E"/>
<path fill-rule="evenodd" clip-rule="evenodd" d="M53.951 0.274902C24.1725 0.274902 0.0322266 24.4152 0.0322266 54.1937C0.0322266 83.9722 24.1725 108.113 53.951 108.113C83.7296 108.113 107.87 83.9722 107.87 54.1937C107.87 24.4152 83.7296 0.274902 53.951 0.274902ZM59.5773 56.5621V85.8968H47.44V56.5633H41.3762V46.4544H47.44V40.385C47.44 32.1382 50.864 27.2343 60.5919 27.2343H68.6907V37.3444H63.6284C59.8416 37.3444 59.591 38.7571 59.591 41.3936L59.5773 46.4532H68.7481L67.6749 56.5621H59.5773Z" fill="#5F77FF"/>
<path fill-rule="evenodd" clip-rule="evenodd" d="M53.951 0.274902C24.1725 0.274902 0.0322266 24.4152 0.0322266 54.1937C0.0322266 83.9722 24.1725 108.113 53.951 108.113C83.7296 108.113 107.87 83.9722 107.87 54.1937C107.87 24.4152 83.7296 0.274902 53.951 0.274902ZM59.5773 56.5621V85.8968H47.44V56.5633H41.3762V46.4544H47.44V40.385C47.44 32.1382 50.864 27.2343 60.5919 27.2343H68.6907V37.3444H63.6284C59.8416 37.3444 59.591 38.7571 59.591 41.3936L59.5773 46.4532H68.7481L67.6749 56.5621H59.5773Z" fill="url(#paint0_linear_1_2091)" fill-opacity="0.2"/>
<defs>
<linearGradient id="paint0_linear_1_2091" x1="53.951" y1="0.274902" x2="53.951" y2="108.113" gradientUnits="userSpaceOnUse">
<stop stop-color="#5F77FF"/>
<stop offset="1" stop-color="#FDA997"/>
</linearGradient>
</defs>
</svg>
