<svg width="109" height="109" viewBox="0 0 109 109" fill="none" xmlns="http://www.w3.org/2000/svg">
<path fill-rule="evenodd" clip-rule="evenodd" d="M54.7838 0.274902C25.0053 0.274902 0.86499 24.4152 0.86499 54.1937C0.86499 83.9722 25.0053 108.113 54.7838 108.113C84.5624 108.113 108.703 83.9722 108.703 54.1937C108.703 24.4152 84.5624 0.274902 54.7838 0.274902ZM42.9321 25.6107C45.999 25.4711 46.9793 25.437 54.7851 25.4369C62.5933 25.437 63.5701 25.4711 66.6369 25.6107C69.6983 25.7509 71.7892 26.2356 73.6224 26.9467C75.5156 27.6806 77.1152 28.6631 78.7148 30.2627C80.3144 31.8611 81.297 33.4655 82.0339 35.3569C82.7408 37.1854 83.2261 39.2751 83.3699 42.3365C83.5077 45.4039 83.5436 46.384 83.5436 54.194C83.5436 62.0039 83.5077 62.9816 83.3699 66.049C83.2261 69.1093 82.7408 71.1995 82.0339 73.0286C81.297 74.9194 80.3144 76.5238 78.7148 78.1222C77.117 79.7218 75.515 80.7067 73.6242 81.4412C71.7946 82.1524 69.7025 82.637 66.6411 82.7772C63.5737 82.9168 62.5965 82.951 54.786 82.951C46.9767 82.951 45.9971 82.9168 42.9297 82.7772C39.8689 82.637 37.7786 82.1524 35.949 81.4412C34.0588 80.7067 32.4544 79.7218 30.8566 78.1222C29.2576 76.5238 28.275 74.9194 27.5399 73.028C26.8294 71.1995 26.3447 69.1098 26.2039 66.0484C26.065 62.981 26.0302 62.0039 26.0302 54.194C26.0302 46.384 26.0662 45.4033 26.2033 42.3359C26.3411 39.2757 26.8264 37.1854 27.5393 35.3563C28.2762 33.4655 29.2588 31.8611 30.8584 30.2627C32.4568 28.6637 34.0612 27.6812 35.9526 26.9467C37.781 26.2356 39.8707 25.7509 42.9321 25.6107ZM53.8296 30.6185H53.8298H53.8299L54.7884 30.6188C62.4665 30.6188 63.3765 30.6463 66.4086 30.7841C69.2124 30.9123 70.7341 31.3808 71.7478 31.7744C73.0898 32.2957 74.0466 32.9187 75.0525 33.9252C76.059 34.9317 76.6821 35.8903 77.2045 37.2323C77.5981 38.2448 78.0672 39.7665 78.1948 42.5703C78.3326 45.6018 78.3625 46.5124 78.3625 54.1869C78.3625 61.8614 78.3326 62.7721 78.1948 65.8035C78.0666 68.6074 77.5981 70.1291 77.2045 71.1416C76.6832 72.4836 76.059 73.4391 75.0525 74.445C74.046 75.4515 73.0904 76.0746 71.7478 76.5958C70.7353 76.9912 69.2124 77.4585 66.4086 77.5867C63.3771 77.7245 62.4665 77.7545 54.7884 77.7545C47.1097 77.7545 46.1996 77.7245 43.1682 77.5867C40.3643 77.4573 38.8426 76.9888 37.8283 76.5952C36.4863 76.074 35.5278 75.4509 34.5213 74.4444C33.5148 73.4379 32.8917 72.4818 32.3693 71.1392C31.9757 70.1267 31.5066 68.605 31.379 65.8011C31.2412 62.7697 31.2136 61.859 31.2136 54.1797C31.2136 46.5004 31.2412 45.5946 31.379 42.5631C31.5072 39.7593 31.9757 38.2376 32.3693 37.2239C32.8905 35.8819 33.5148 34.9233 34.5213 33.9168C35.5278 32.9103 36.4863 32.2873 37.8283 31.7648C38.842 31.3694 40.3643 30.9021 43.1682 30.7733C45.821 30.6535 46.849 30.6176 52.2086 30.6116V30.6188C52.7095 30.618 53.2482 30.6182 53.8296 30.6185ZM70.142 35.3939C68.2368 35.3939 66.6911 36.9378 66.6911 38.8436C66.6911 40.7487 68.2368 42.2944 70.142 42.2944C72.0471 42.2944 73.5928 40.7487 73.5928 38.8436C73.5928 36.9384 72.0471 35.3927 70.142 35.3927V35.3939ZM40.0222 54.1942C40.0222 46.0386 46.6345 39.4263 54.7901 39.4263C62.9455 39.4266 69.5557 46.0388 69.5557 54.1942C69.5557 62.3498 62.9458 68.9591 54.7901 68.9591C46.6345 68.9591 40.0222 62.3498 40.0222 54.1942ZM64.3693 54.1955C64.3693 48.9012 60.0773 44.6099 54.7837 44.6099C49.4894 44.6099 45.198 48.9012 45.198 54.1955C45.198 59.4892 49.4894 63.7812 54.7837 63.7812C60.0773 63.7812 64.3693 59.4892 64.3693 54.1955Z" fill="#1E1E1E"/>
<path fill-rule="evenodd" clip-rule="evenodd" d="M54.7838 0.274902C25.0053 0.274902 0.86499 24.4152 0.86499 54.1937C0.86499 83.9722 25.0053 108.113 54.7838 108.113C84.5624 108.113 108.703 83.9722 108.703 54.1937C108.703 24.4152 84.5624 0.274902 54.7838 0.274902ZM42.9321 25.6107C45.999 25.4711 46.9793 25.437 54.7851 25.4369C62.5933 25.437 63.5701 25.4711 66.6369 25.6107C69.6983 25.7509 71.7892 26.2356 73.6224 26.9467C75.5156 27.6806 77.1152 28.6631 78.7148 30.2627C80.3144 31.8611 81.297 33.4655 82.0339 35.3569C82.7408 37.1854 83.2261 39.2751 83.3699 42.3365C83.5077 45.4039 83.5436 46.384 83.5436 54.194C83.5436 62.0039 83.5077 62.9816 83.3699 66.049C83.2261 69.1093 82.7408 71.1995 82.0339 73.0286C81.297 74.9194 80.3144 76.5238 78.7148 78.1222C77.117 79.7218 75.515 80.7067 73.6242 81.4412C71.7946 82.1524 69.7025 82.637 66.6411 82.7772C63.5737 82.9168 62.5965 82.951 54.786 82.951C46.9767 82.951 45.9971 82.9168 42.9297 82.7772C39.8689 82.637 37.7786 82.1524 35.949 81.4412C34.0588 80.7067 32.4544 79.7218 30.8566 78.1222C29.2576 76.5238 28.275 74.9194 27.5399 73.028C26.8294 71.1995 26.3447 69.1098 26.2039 66.0484C26.065 62.981 26.0302 62.0039 26.0302 54.194C26.0302 46.384 26.0662 45.4033 26.2033 42.3359C26.3411 39.2757 26.8264 37.1854 27.5393 35.3563C28.2762 33.4655 29.2588 31.8611 30.8584 30.2627C32.4568 28.6637 34.0612 27.6812 35.9526 26.9467C37.781 26.2356 39.8707 25.7509 42.9321 25.6107ZM53.8296 30.6185H53.8298H53.8299L54.7884 30.6188C62.4665 30.6188 63.3765 30.6463 66.4086 30.7841C69.2124 30.9123 70.7341 31.3808 71.7478 31.7744C73.0898 32.2957 74.0466 32.9187 75.0525 33.9252C76.059 34.9317 76.6821 35.8903 77.2045 37.2323C77.5981 38.2448 78.0672 39.7665 78.1948 42.5703C78.3326 45.6018 78.3625 46.5124 78.3625 54.1869C78.3625 61.8614 78.3326 62.7721 78.1948 65.8035C78.0666 68.6074 77.5981 70.1291 77.2045 71.1416C76.6832 72.4836 76.059 73.4391 75.0525 74.445C74.046 75.4515 73.0904 76.0746 71.7478 76.5958C70.7353 76.9912 69.2124 77.4585 66.4086 77.5867C63.3771 77.7245 62.4665 77.7545 54.7884 77.7545C47.1097 77.7545 46.1996 77.7245 43.1682 77.5867C40.3643 77.4573 38.8426 76.9888 37.8283 76.5952C36.4863 76.074 35.5278 75.4509 34.5213 74.4444C33.5148 73.4379 32.8917 72.4818 32.3693 71.1392C31.9757 70.1267 31.5066 68.605 31.379 65.8011C31.2412 62.7697 31.2136 61.859 31.2136 54.1797C31.2136 46.5004 31.2412 45.5946 31.379 42.5631C31.5072 39.7593 31.9757 38.2376 32.3693 37.2239C32.8905 35.8819 33.5148 34.9233 34.5213 33.9168C35.5278 32.9103 36.4863 32.2873 37.8283 31.7648C38.842 31.3694 40.3643 30.9021 43.1682 30.7733C45.821 30.6535 46.849 30.6176 52.2086 30.6116V30.6188C52.7095 30.618 53.2482 30.6182 53.8296 30.6185ZM70.142 35.3939C68.2368 35.3939 66.6911 36.9378 66.6911 38.8436C66.6911 40.7487 68.2368 42.2944 70.142 42.2944C72.0471 42.2944 73.5928 40.7487 73.5928 38.8436C73.5928 36.9384 72.0471 35.3927 70.142 35.3927V35.3939ZM40.0222 54.1942C40.0222 46.0386 46.6345 39.4263 54.7901 39.4263C62.9455 39.4266 69.5557 46.0388 69.5557 54.1942C69.5557 62.3498 62.9458 68.9591 54.7901 68.9591C46.6345 68.9591 40.0222 62.3498 40.0222 54.1942ZM64.3693 54.1955C64.3693 48.9012 60.0773 44.6099 54.7837 44.6099C49.4894 44.6099 45.198 48.9012 45.198 54.1955C45.198 59.4892 49.4894 63.7812 54.7837 63.7812C60.0773 63.7812 64.3693 59.4892 64.3693 54.1955Z" fill="#5F77FF"/>
<path fill-rule="evenodd" clip-rule="evenodd" d="M54.7838 0.274902C25.0053 0.274902 0.86499 24.4152 0.86499 54.1937C0.86499 83.9722 25.0053 108.113 54.7838 108.113C84.5624 108.113 108.703 83.9722 108.703 54.1937C108.703 24.4152 84.5624 0.274902 54.7838 0.274902ZM42.9321 25.6107C45.999 25.4711 46.9793 25.437 54.7851 25.4369C62.5933 25.437 63.5701 25.4711 66.6369 25.6107C69.6983 25.7509 71.7892 26.2356 73.6224 26.9467C75.5156 27.6806 77.1152 28.6631 78.7148 30.2627C80.3144 31.8611 81.297 33.4655 82.0339 35.3569C82.7408 37.1854 83.2261 39.2751 83.3699 42.3365C83.5077 45.4039 83.5436 46.384 83.5436 54.194C83.5436 62.0039 83.5077 62.9816 83.3699 66.049C83.2261 69.1093 82.7408 71.1995 82.0339 73.0286C81.297 74.9194 80.3144 76.5238 78.7148 78.1222C77.117 79.7218 75.515 80.7067 73.6242 81.4412C71.7946 82.1524 69.7025 82.637 66.6411 82.7772C63.5737 82.9168 62.5965 82.951 54.786 82.951C46.9767 82.951 45.9971 82.9168 42.9297 82.7772C39.8689 82.637 37.7786 82.1524 35.949 81.4412C34.0588 80.7067 32.4544 79.7218 30.8566 78.1222C29.2576 76.5238 28.275 74.9194 27.5399 73.028C26.8294 71.1995 26.3447 69.1098 26.2039 66.0484C26.065 62.981 26.0302 62.0039 26.0302 54.194C26.0302 46.384 26.0662 45.4033 26.2033 42.3359C26.3411 39.2757 26.8264 37.1854 27.5393 35.3563C28.2762 33.4655 29.2588 31.8611 30.8584 30.2627C32.4568 28.6637 34.0612 27.6812 35.9526 26.9467C37.781 26.2356 39.8707 25.7509 42.9321 25.6107ZM53.8296 30.6185H53.8298H53.8299L54.7884 30.6188C62.4665 30.6188 63.3765 30.6463 66.4086 30.7841C69.2124 30.9123 70.7341 31.3808 71.7478 31.7744C73.0898 32.2957 74.0466 32.9187 75.0525 33.9252C76.059 34.9317 76.6821 35.8903 77.2045 37.2323C77.5981 38.2448 78.0672 39.7665 78.1948 42.5703C78.3326 45.6018 78.3625 46.5124 78.3625 54.1869C78.3625 61.8614 78.3326 62.7721 78.1948 65.8035C78.0666 68.6074 77.5981 70.1291 77.2045 71.1416C76.6832 72.4836 76.059 73.4391 75.0525 74.445C74.046 75.4515 73.0904 76.0746 71.7478 76.5958C70.7353 76.9912 69.2124 77.4585 66.4086 77.5867C63.3771 77.7245 62.4665 77.7545 54.7884 77.7545C47.1097 77.7545 46.1996 77.7245 43.1682 77.5867C40.3643 77.4573 38.8426 76.9888 37.8283 76.5952C36.4863 76.074 35.5278 75.4509 34.5213 74.4444C33.5148 73.4379 32.8917 72.4818 32.3693 71.1392C31.9757 70.1267 31.5066 68.605 31.379 65.8011C31.2412 62.7697 31.2136 61.859 31.2136 54.1797C31.2136 46.5004 31.2412 45.5946 31.379 42.5631C31.5072 39.7593 31.9757 38.2376 32.3693 37.2239C32.8905 35.8819 33.5148 34.9233 34.5213 33.9168C35.5278 32.9103 36.4863 32.2873 37.8283 31.7648C38.842 31.3694 40.3643 30.9021 43.1682 30.7733C45.821 30.6535 46.849 30.6176 52.2086 30.6116V30.6188C52.7095 30.618 53.2482 30.6182 53.8296 30.6185ZM70.142 35.3939C68.2368 35.3939 66.6911 36.9378 66.6911 38.8436C66.6911 40.7487 68.2368 42.2944 70.142 42.2944C72.0471 42.2944 73.5928 40.7487 73.5928 38.8436C73.5928 36.9384 72.0471 35.3927 70.142 35.3927V35.3939ZM40.0222 54.1942C40.0222 46.0386 46.6345 39.4263 54.7901 39.4263C62.9455 39.4266 69.5557 46.0388 69.5557 54.1942C69.5557 62.3498 62.9458 68.9591 54.7901 68.9591C46.6345 68.9591 40.0222 62.3498 40.0222 54.1942ZM64.3693 54.1955C64.3693 48.9012 60.0773 44.6099 54.7837 44.6099C49.4894 44.6099 45.198 48.9012 45.198 54.1955C45.198 59.4892 49.4894 63.7812 54.7837 63.7812C60.0773 63.7812 64.3693 59.4892 64.3693 54.1955Z" fill="url(#paint0_linear_1_2103)" fill-opacity="0.2"/>
<defs>
<linearGradient id="paint0_linear_1_2103" x1="54.7838" y1="0.274902" x2="54.7838" y2="108.113" gradientUnits="userSpaceOnUse">
<stop stop-color="#5F77FF"/>
<stop offset="1" stop-color="#FDA997"/>
</linearGradient>
</defs>
</svg>
