<svg width="109" height="109" viewBox="0 0 109 109" fill="none" xmlns="http://www.w3.org/2000/svg">
<path fill-rule="evenodd" clip-rule="evenodd" d="M54.671 0.274902C24.8925 0.274902 0.752197 24.4152 0.752197 54.1937C0.752197 83.9722 24.8925 108.113 54.671 108.113C84.4496 108.113 108.59 83.9722 108.59 54.1937C108.59 24.4152 84.4496 0.274902 54.671 0.274902ZM26.6418 44.9316H38.861V81.6452H26.6418V44.9316ZM39.6638 33.5749C39.5844 29.9752 37.0103 27.2334 32.8302 27.2334C28.65 27.2334 25.9172 29.9752 25.9172 33.5749C25.9172 37.1001 28.5693 39.9208 32.6715 39.9208H32.7496C37.0103 39.9208 39.6638 37.1001 39.6638 33.5749ZM68.8501 44.0688C76.8909 44.0688 82.9189 49.3173 82.9189 60.5941L82.9184 81.6445H70.6998V62.0027C70.6998 57.0691 68.9316 53.7026 64.5082 53.7026C61.1324 53.7026 59.1216 55.9721 58.2385 58.1642C57.9154 58.9498 57.8361 60.0444 57.8361 61.1416V81.6455H45.6155C45.6155 81.6455 45.7765 48.3769 45.6155 44.9319H57.8361V50.1321C59.4579 47.6323 62.3625 44.0688 68.8501 44.0688Z" fill="#1E1E1E"/>
<path fill-rule="evenodd" clip-rule="evenodd" d="M54.671 0.274902C24.8925 0.274902 0.752197 24.4152 0.752197 54.1937C0.752197 83.9722 24.8925 108.113 54.671 108.113C84.4496 108.113 108.59 83.9722 108.59 54.1937C108.59 24.4152 84.4496 0.274902 54.671 0.274902ZM26.6418 44.9316H38.861V81.6452H26.6418V44.9316ZM39.6638 33.5749C39.5844 29.9752 37.0103 27.2334 32.8302 27.2334C28.65 27.2334 25.9172 29.9752 25.9172 33.5749C25.9172 37.1001 28.5693 39.9208 32.6715 39.9208H32.7496C37.0103 39.9208 39.6638 37.1001 39.6638 33.5749ZM68.8501 44.0688C76.8909 44.0688 82.9189 49.3173 82.9189 60.5941L82.9184 81.6445H70.6998V62.0027C70.6998 57.0691 68.9316 53.7026 64.5082 53.7026C61.1324 53.7026 59.1216 55.9721 58.2385 58.1642C57.9154 58.9498 57.8361 60.0444 57.8361 61.1416V81.6455H45.6155C45.6155 81.6455 45.7765 48.3769 45.6155 44.9319H57.8361V50.1321C59.4579 47.6323 62.3625 44.0688 68.8501 44.0688Z" fill="#5F77FF"/>
<path fill-rule="evenodd" clip-rule="evenodd" d="M54.671 0.274902C24.8925 0.274902 0.752197 24.4152 0.752197 54.1937C0.752197 83.9722 24.8925 108.113 54.671 108.113C84.4496 108.113 108.59 83.9722 108.59 54.1937C108.59 24.4152 84.4496 0.274902 54.671 0.274902ZM26.6418 44.9316H38.861V81.6452H26.6418V44.9316ZM39.6638 33.5749C39.5844 29.9752 37.0103 27.2334 32.8302 27.2334C28.65 27.2334 25.9172 29.9752 25.9172 33.5749C25.9172 37.1001 28.5693 39.9208 32.6715 39.9208H32.7496C37.0103 39.9208 39.6638 37.1001 39.6638 33.5749ZM68.8501 44.0688C76.8909 44.0688 82.9189 49.3173 82.9189 60.5941L82.9184 81.6445H70.6998V62.0027C70.6998 57.0691 68.9316 53.7026 64.5082 53.7026C61.1324 53.7026 59.1216 55.9721 58.2385 58.1642C57.9154 58.9498 57.8361 60.0444 57.8361 61.1416V81.6455H45.6155C45.6155 81.6455 45.7765 48.3769 45.6155 44.9319H57.8361V50.1321C59.4579 47.6323 62.3625 44.0688 68.8501 44.0688Z" fill="url(#paint0_linear_1_2096)" fill-opacity="0.2"/>
<defs>
<linearGradient id="paint0_linear_1_2096" x1="54.671" y1="0.274902" x2="54.671" y2="108.113" gradientUnits="userSpaceOnUse">
<stop stop-color="#5F77FF"/>
<stop offset="1" stop-color="#FDA997"/>
</linearGradient>
</defs>
</svg>
