<svg width="109" height="109" viewBox="0 0 109 109" fill="none" xmlns="http://www.w3.org/2000/svg">
<path fill-rule="evenodd" clip-rule="evenodd" d="M54.411 108.113C84.1896 108.113 108.33 83.9722 108.33 54.1937C108.33 24.4152 84.1896 0.274902 54.411 0.274902C24.6325 0.274902 0.492188 24.4152 0.492188 54.1937C0.492188 83.9722 24.6325 108.113 54.411 108.113ZM55.9494 30.4086H63.9669C63.9669 36.476 68.6952 41.4402 74.7254 41.647V49.7828C70.8194 49.7138 67.1191 48.4038 64.1039 46.1975V62.8137C64.1039 71.1564 57.3884 77.9821 49.0969 77.9821C40.8052 77.9821 34.0897 71.2253 34.0897 62.8137C34.0897 54.4712 40.6682 47.7833 48.8228 47.6454V55.7812C45.1223 55.919 42.1072 59.0217 42.1072 62.8137C42.1072 66.6748 45.1909 69.8464 49.0283 69.8464C52.8658 69.8464 55.9494 66.6748 55.9494 62.8137V30.4086Z" fill="#1E1E1E"/>
<path fill-rule="evenodd" clip-rule="evenodd" d="M54.411 108.113C84.1896 108.113 108.33 83.9722 108.33 54.1937C108.33 24.4152 84.1896 0.274902 54.411 0.274902C24.6325 0.274902 0.492188 24.4152 0.492188 54.1937C0.492188 83.9722 24.6325 108.113 54.411 108.113ZM55.9494 30.4086H63.9669C63.9669 36.476 68.6952 41.4402 74.7254 41.647V49.7828C70.8194 49.7138 67.1191 48.4038 64.1039 46.1975V62.8137C64.1039 71.1564 57.3884 77.9821 49.0969 77.9821C40.8052 77.9821 34.0897 71.2253 34.0897 62.8137C34.0897 54.4712 40.6682 47.7833 48.8228 47.6454V55.7812C45.1223 55.919 42.1072 59.0217 42.1072 62.8137C42.1072 66.6748 45.1909 69.8464 49.0283 69.8464C52.8658 69.8464 55.9494 66.6748 55.9494 62.8137V30.4086Z" fill="#5F77FF"/>
<path fill-rule="evenodd" clip-rule="evenodd" d="M54.411 108.113C84.1896 108.113 108.33 83.9722 108.33 54.1937C108.33 24.4152 84.1896 0.274902 54.411 0.274902C24.6325 0.274902 0.492188 24.4152 0.492188 54.1937C0.492188 83.9722 24.6325 108.113 54.411 108.113ZM55.9494 30.4086H63.9669C63.9669 36.476 68.6952 41.4402 74.7254 41.647V49.7828C70.8194 49.7138 67.1191 48.4038 64.1039 46.1975V62.8137C64.1039 71.1564 57.3884 77.9821 49.0969 77.9821C40.8052 77.9821 34.0897 71.2253 34.0897 62.8137C34.0897 54.4712 40.6682 47.7833 48.8228 47.6454V55.7812C45.1223 55.919 42.1072 59.0217 42.1072 62.8137C42.1072 66.6748 45.1909 69.8464 49.0283 69.8464C52.8658 69.8464 55.9494 66.6748 55.9494 62.8137V30.4086Z" fill="url(#paint0_linear_1_2121)" fill-opacity="0.2"/>
<defs>
<linearGradient id="paint0_linear_1_2121" x1="54.411" y1="0.274902" x2="54.411" y2="108.113" gradientUnits="userSpaceOnUse">
<stop stop-color="#5F77FF"/>
<stop offset="1" stop-color="#FDA997"/>
</linearGradient>
</defs>
</svg>
