<svg width="109" height="109" viewBox="0 0 109 109" fill="none" xmlns="http://www.w3.org/2000/svg">
<path fill-rule="evenodd" clip-rule="evenodd" d="M0.330078 54.1937C0.330078 24.4152 24.4704 0.274902 54.2489 0.274902C84.0274 0.274902 108.168 24.4152 108.168 54.1937C108.168 83.9722 84.0274 108.113 54.2489 108.113C24.4704 108.113 0.330078 83.9722 0.330078 54.1937ZM82.4344 43.3381C82.4344 43.3381 81.8718 39.2883 80.1482 37.5049C78.1752 35.3926 75.9872 35.1767 74.7529 35.0549C74.6189 35.0416 74.4961 35.0295 74.3861 35.0162C66.3378 34.4211 54.2654 34.4211 54.2654 34.4211H54.2402C54.2402 34.4211 42.1678 34.4211 34.1195 35.0162C34.0095 35.0295 33.8867 35.0416 33.7528 35.0548C32.5177 35.1766 30.3306 35.3922 28.3556 37.5049C26.632 39.2883 26.0712 43.3381 26.0712 43.3381C26.0712 43.3381 25.4961 48.0951 25.4961 52.8502V57.3096C25.4961 62.0666 26.0712 66.8217 26.0712 66.8217C26.0712 66.8217 26.632 70.8715 28.3556 72.6549C30.1718 74.5977 32.4593 74.8781 33.9167 75.0568C34.216 75.0935 34.4802 75.1259 34.6982 75.1675C39.2993 75.6193 54.2528 75.7589 54.2528 75.7589C54.2528 75.7589 66.3378 75.7405 74.3861 75.1454C74.4974 75.1318 74.6217 75.1194 74.7576 75.1058C75.9926 74.9826 78.1776 74.7646 80.1482 72.6549C81.8718 70.8715 82.4344 66.8217 82.4344 66.8217C82.4344 66.8217 83.0095 62.0666 83.0095 57.3096V52.8502C83.0095 48.0951 82.4344 43.3381 82.4344 43.3381ZM48.3059 46.2016L48.3076 62.7151L63.8453 54.4868L48.3059 46.2016Z" fill="#1E1E1E"/>
<path fill-rule="evenodd" clip-rule="evenodd" d="M0.330078 54.1937C0.330078 24.4152 24.4704 0.274902 54.2489 0.274902C84.0274 0.274902 108.168 24.4152 108.168 54.1937C108.168 83.9722 84.0274 108.113 54.2489 108.113C24.4704 108.113 0.330078 83.9722 0.330078 54.1937ZM82.4344 43.3381C82.4344 43.3381 81.8718 39.2883 80.1482 37.5049C78.1752 35.3926 75.9872 35.1767 74.7529 35.0549C74.6189 35.0416 74.4961 35.0295 74.3861 35.0162C66.3378 34.4211 54.2654 34.4211 54.2654 34.4211H54.2402C54.2402 34.4211 42.1678 34.4211 34.1195 35.0162C34.0095 35.0295 33.8867 35.0416 33.7528 35.0548C32.5177 35.1766 30.3306 35.3922 28.3556 37.5049C26.632 39.2883 26.0712 43.3381 26.0712 43.3381C26.0712 43.3381 25.4961 48.0951 25.4961 52.8502V57.3096C25.4961 62.0666 26.0712 66.8217 26.0712 66.8217C26.0712 66.8217 26.632 70.8715 28.3556 72.6549C30.1718 74.5977 32.4593 74.8781 33.9167 75.0568C34.216 75.0935 34.4802 75.1259 34.6982 75.1675C39.2993 75.6193 54.2528 75.7589 54.2528 75.7589C54.2528 75.7589 66.3378 75.7405 74.3861 75.1454C74.4974 75.1318 74.6217 75.1194 74.7576 75.1058C75.9926 74.9826 78.1776 74.7646 80.1482 72.6549C81.8718 70.8715 82.4344 66.8217 82.4344 66.8217C82.4344 66.8217 83.0095 62.0666 83.0095 57.3096V52.8502C83.0095 48.0951 82.4344 43.3381 82.4344 43.3381ZM48.3059 46.2016L48.3076 62.7151L63.8453 54.4868L48.3059 46.2016Z" fill="#5F77FF"/>
<path fill-rule="evenodd" clip-rule="evenodd" d="M0.330078 54.1937C0.330078 24.4152 24.4704 0.274902 54.2489 0.274902C84.0274 0.274902 108.168 24.4152 108.168 54.1937C108.168 83.9722 84.0274 108.113 54.2489 108.113C24.4704 108.113 0.330078 83.9722 0.330078 54.1937ZM82.4344 43.3381C82.4344 43.3381 81.8718 39.2883 80.1482 37.5049C78.1752 35.3926 75.9872 35.1767 74.7529 35.0549C74.6189 35.0416 74.4961 35.0295 74.3861 35.0162C66.3378 34.4211 54.2654 34.4211 54.2654 34.4211H54.2402C54.2402 34.4211 42.1678 34.4211 34.1195 35.0162C34.0095 35.0295 33.8867 35.0416 33.7528 35.0548C32.5177 35.1766 30.3306 35.3922 28.3556 37.5049C26.632 39.2883 26.0712 43.3381 26.0712 43.3381C26.0712 43.3381 25.4961 48.0951 25.4961 52.8502V57.3096C25.4961 62.0666 26.0712 66.8217 26.0712 66.8217C26.0712 66.8217 26.632 70.8715 28.3556 72.6549C30.1718 74.5977 32.4593 74.8781 33.9167 75.0568C34.216 75.0935 34.4802 75.1259 34.6982 75.1675C39.2993 75.6193 54.2528 75.7589 54.2528 75.7589C54.2528 75.7589 66.3378 75.7405 74.3861 75.1454C74.4974 75.1318 74.6217 75.1194 74.7576 75.1058C75.9926 74.9826 78.1776 74.7646 80.1482 72.6549C81.8718 70.8715 82.4344 66.8217 82.4344 66.8217C82.4344 66.8217 83.0095 62.0666 83.0095 57.3096V52.8502C83.0095 48.0951 82.4344 43.3381 82.4344 43.3381ZM48.3059 46.2016L48.3076 62.7151L63.8453 54.4868L48.3059 46.2016Z" fill="url(#paint0_linear_1_2114)" fill-opacity="0.2"/>
<defs>
<linearGradient id="paint0_linear_1_2114" x1="54.2489" y1="0.274902" x2="54.2489" y2="108.113" gradientUnits="userSpaceOnUse">
<stop stop-color="#5F77FF"/>
<stop offset="1" stop-color="#FDA997"/>
</linearGradient>
</defs>
</svg>
