<svg width="197" height="233" viewBox="0 0 197 233" fill="none" xmlns="http://www.w3.org/2000/svg">
<path opacity="0.33" d="M178.364 224.38C178.01 224.682 177.793 224.887 177.558 225.066C176.064 226.247 174.58 227.426 173.059 228.553C171.027 230.094 168.718 231.231 166.257 231.903C164.864 232.2 163.433 232.271 162.017 232.112C156.722 231.795 151.46 231.07 146.277 229.943C134.172 227.322 122.435 223.225 111.331 217.745C98.8911 211.646 87.1734 204.176 76.3963 195.476C63.7332 185.269 52.1964 173.743 41.9817 161.092C40.0016 158.658 38.2414 156.038 36.4528 153.456C28.7788 142.419 22.1072 130.719 16.5174 118.496C13.2321 111.287 10.3905 103.886 8.0084 96.3313C6.63743 91.9793 5.45677 87.5709 4.42015 83.1225C2.74781 75.9908 1.56724 68.7527 0.887081 61.4592C-0.0846756 50.9744 -0.0523994 40.4755 1.55984 30.0342C1.82986 28.2471 2.23864 26.4836 2.56824 24.7072C2.73428 23.9033 3.03558 23.1333 3.45933 22.4299C4.63506 20.3697 6.17382 18.5384 8.00144 17.0243C9.25839 15.979 10.5791 15.0066 11.8767 14.0086C12.0198 13.9111 12.1685 13.822 12.3219 13.7417C12.4664 13.8438 12.5997 13.9605 12.7201 14.09C27.4876 32.8282 42.2782 51.5935 57.0922 70.3862C55.5857 71.7813 53.8941 72.8312 52.3849 74.2074C52.453 74.6805 52.4786 75.126 52.5453 75.5897C53.1732 79.9381 54.0214 84.2519 55.0867 88.5144C57.6748 98.9328 61.6947 108.943 67.0319 118.259C69.8927 123.375 73.2604 128.19 77.0848 132.634C77.2569 132.826 77.417 133.029 77.5639 133.241C81.7388 139.168 86.5926 144.588 92.0267 149.391C102.335 158.672 114.196 166.073 127.068 171.258C128.425 171.812 128.179 171.818 129.357 170.929C130.42 170.114 131.466 169.288 132.524 168.474C132.864 168.213 133.216 167.973 133.584 167.703C133.73 167.813 133.865 167.936 133.99 168.07L178.364 224.38ZM19.0796 9.24873C33.7933 27.927 48.5097 46.6016 63.2287 65.2727C63.2762 65.3335 63.3758 65.3529 63.516 65.4197C64.5067 64.8398 65.3814 64.0819 66.0961 63.1843C67.5081 61.4349 68.5678 59.4293 69.2169 57.2781C69.8933 55.0459 70.1521 52.7085 69.9803 50.383C69.877 47.9233 69.2878 45.5085 68.2469 43.2773C62.7771 32.1518 57.3073 21.0263 51.8376 9.90088C50.7338 7.64954 49.1615 5.65961 47.2256 4.06413C44.0373 1.35237 39.9298 -0.0370201 35.7466 0.181276C32.9858 0.332709 30.2687 0.93904 27.7057 1.97571C27.2655 2.14895 26.8532 2.38562 26.4817 2.67821C24.0859 4.5136 21.7018 6.3634 19.3294 8.22761C19.1354 8.4035 18.9523 8.59113 18.7814 8.7894C18.8726 8.94265 18.9714 9.09121 19.0776 9.23454L19.0796 9.24873ZM141.295 164.425C151.522 177.42 161.751 190.41 171.983 203.397C175.954 208.431 179.926 213.468 183.898 218.508C184.153 218.834 184.313 219.274 184.787 219.346C184.875 219.316 184.958 219.274 185.036 219.223C187.151 217.593 189.263 215.957 191.371 214.318C191.61 214.134 191.823 213.92 192.005 213.681C193.99 211.117 195.424 208.172 196.216 205.03C196.82 202.64 196.855 200.142 196.318 197.737C195.448 193.925 193.352 190.504 190.351 187.995C180.836 179.905 171.322 171.807 161.808 163.7C161.482 163.42 161.136 163.163 160.773 162.932C158.908 161.762 156.882 160.871 154.759 160.286C150.492 159.137 146.314 159.308 142.265 161.181C141.426 161.524 140.669 162.038 140.039 162.689C140.405 163.304 140.825 163.886 141.295 164.425Z" fill="url(#paint0_linear_1_2067)"/>
<defs>
<linearGradient id="paint0_linear_1_2067" x1="79.1883" y1="28.0952" x2="179.931" y2="210.641" gradientUnits="userSpaceOnUse">
<stop stop-color="white"/>
<stop offset="1" stop-color="white" stop-opacity="0"/>
</linearGradient>
</defs>
</svg>
