<svg width="293" height="207" viewBox="0 0 293 207" fill="none" xmlns="http://www.w3.org/2000/svg">
<path opacity="0.23" d="M146.631 0.32428C185.205 0.32428 223.778 0.32428 262.349 0.32428C266.937 0.32428 271.304 1.15849 275.404 3.24403C282.649 6.88121 287.609 12.5997 290.512 20.1202C291.868 23.639 292.565 27.3774 292.568 31.1485V32.0995C292.568 79.5219 292.568 126.941 292.568 174.358C292.638 178.125 292.055 181.876 290.846 185.445C287.763 194.125 282.136 200.482 273.582 204.098C270.344 205.44 266.879 206.148 263.375 206.184C262.958 206.184 262.541 206.184 262.124 206.184C185.098 206.184 108.061 206.184 31.0127 206.184C28.0436 206.236 25.0829 205.853 22.2243 205.049C14.608 202.763 8.87674 198.062 4.85165 191.284C1.86099 186.25 0.509717 180.744 0.422124 174.913C0.422124 174.65 0.422124 174.383 0.422124 174.12V32.3123C0.355838 28.1177 1.08311 23.9485 2.56591 20.0243C5.82352 11.728 11.4421 5.69662 19.7467 2.28885C22.9542 1.0128 26.372 0.347895 29.8239 0.328442C30.3537 0.328442 30.8834 0.328442 31.4131 0.328442L146.631 0.32428ZM14.8541 41.0506C14.6995 41.8148 14.6475 42.5961 14.6997 43.3739C14.6997 86.717 14.6997 130.057 14.6997 173.395C14.6997 173.812 14.6997 174.229 14.6997 174.646C14.7002 176.132 14.8866 177.611 15.2545 179.051C16.8604 184.69 20.3098 188.615 25.9783 190.434C27.5103 190.866 29.1007 191.056 30.6915 190.997C107.884 190.997 185.08 190.997 262.278 190.997H263.55C264.77 190.984 265.981 190.787 267.141 190.413C272.08 188.853 275.346 185.537 277.235 180.786C278.091 178.634 278.287 176.381 278.287 174.083C278.287 128.994 278.287 83.9057 278.287 38.8191C278.287 38.4479 278.287 38.0767 278.287 37.7055C278.253 37.4084 278.204 37.1132 278.141 36.8212C277.532 37.2383 277.048 37.5177 276.585 37.8431C248.188 57.9644 219.794 78.087 191.403 98.2111C185.563 102.346 179.741 106.496 173.935 110.662C168.833 114.326 162.892 116.647 156.658 117.411C152.548 117.914 148.385 117.803 144.307 117.081C137.018 115.895 130.035 113.278 123.761 109.381C101.954 95.7084 80.1536 82.0245 58.3583 68.3295L16.6476 42.1435C16.1095 41.8098 15.5882 41.4844 14.8541 41.0506ZM16.4975 24.3955C17.1212 24.8667 17.7746 25.2972 18.4537 25.6844C55.7153 49.0897 92.988 72.4936 130.272 95.8961C133.361 97.8515 136.684 99.4112 140.161 100.539C144.891 102.061 149.705 102.904 154.71 102.328C158.996 101.877 163.081 100.279 166.535 97.7022C167.132 97.2601 167.72 96.8054 168.325 96.38C196.023 76.7425 223.725 57.1093 251.429 37.4802C258.645 32.3665 265.861 27.25 273.077 22.1307C273.54 21.8011 274.099 21.5634 274.382 21.0045C274.315 20.8575 274.232 20.7177 274.136 20.5874C271.962 18.0894 269.021 16.3821 265.773 15.7322C264.363 15.4907 262.932 15.3942 261.502 15.4444H31.5091C31.0336 15.4444 30.554 15.4444 30.0785 15.4444C23.9637 15.6405 19.5672 18.5811 16.6433 23.8658C16.5781 24.0374 16.5294 24.2148 16.4975 24.3955Z" fill="url(#paint0_linear_1_2056)"/>
<defs>
<linearGradient id="paint0_linear_1_2056" x1="158.978" y1="34.795" x2="172.239" y2="175.193" gradientUnits="userSpaceOnUse">
<stop stop-color="white"/>
<stop offset="1" stop-color="white" stop-opacity="0"/>
</linearGradient>
</defs>
</svg>
