<svg width="145" height="216" viewBox="0 0 145 216" fill="none" xmlns="http://www.w3.org/2000/svg">
<path opacity="0.33" d="M72.6562 215.027H72.5858C70.933 215.021 69.3098 214.589 67.8737 213.772C66.4376 212.955 65.2373 211.781 64.3895 210.365C56.7024 197.6 30.6856 154.056 18.7763 129.486C14.2228 120.124 8.48554 107.653 4.24255 94.1522C2.1314 87.4516 0.0078494 79.4158 0.223104 70.5906C0.943377 41.1758 20.0927 14.729 47.8978 4.78762C57.5552 1.29458 67.8446 -0.11426 78.0872 0.654012C87.9035 1.40153 97.4616 4.15345 106.17 8.73935C114.897 13.2855 122.597 19.5731 128.792 27.2125C135.259 35.1766 139.964 44.4182 142.597 54.3289C145.846 66.5686 145.559 79.4768 141.769 91.5604C138.284 102.82 133.552 114.552 126.867 128.482C117.557 147.91 106.435 168.28 91.8594 192.553C89.0528 197.232 83.7376 205.78 80.8234 210.489C79.9636 211.879 78.7614 213.026 77.3317 213.82C75.902 214.615 74.2924 215.03 72.6562 215.027ZM72.7059 15.3325C65.96 15.3454 59.2672 16.5229 52.9232 18.813C30.8844 26.6958 15.6677 47.6573 15.1213 70.9667C14.9598 77.6012 16.7148 84.1571 18.4575 89.692C22.4149 102.266 27.8751 114.101 32.1885 123.001C42.1233 143.474 62.2867 177.808 72.7265 195.297C75.0612 191.523 77.4993 187.551 79.1013 184.889C93.4281 161.026 104.352 141.073 113.459 122.058C119.809 108.798 124.288 97.7112 127.554 87.1581C130.509 77.7554 130.74 67.7097 128.221 58.1815C123.961 42.3291 113.683 29.4487 99.2731 21.9173C91.0817 17.6094 81.9638 15.3566 72.7059 15.3531V15.3325ZM72.561 103.044C68.7596 103.049 64.9946 102.305 61.4823 100.853C57.9701 99.4006 54.7799 97.2696 52.0953 94.5821C49.3693 91.8999 47.2041 88.7038 45.7253 85.1792C44.2465 81.6546 43.4836 77.8718 43.4809 74.0504C43.4676 66.3693 46.498 58.9948 51.9107 53.5372C57.3234 48.0795 64.6787 44.982 72.3706 44.9209H72.5112C80.2137 44.9327 87.5996 47.9835 93.0596 53.4086C98.5196 58.8338 101.611 66.1937 101.662 73.8851C101.689 77.6936 100.96 81.4697 99.5142 84.9942C98.0689 88.5188 95.9368 91.7216 93.2419 94.4167C90.5546 97.1436 87.352 99.3106 83.8197 100.792C80.2874 102.274 76.4957 103.04 72.6644 103.048H72.5486L72.561 103.044ZM72.5238 59.7977H72.4534C68.7018 59.8294 65.1151 61.3429 62.4778 64.0075C59.8404 66.6721 58.3669 70.2709 58.3791 74.0173C58.3827 75.8803 58.7561 77.724 59.4781 79.4417C60.2 81.1595 61.2559 82.7173 62.5847 84.0248C63.8911 85.3339 65.4433 86.3728 67.1523 87.0821C68.8613 87.7914 70.6936 88.1572 72.5444 88.1584H72.6024C74.4737 88.1538 76.3254 87.7779 78.05 87.0527C79.7747 86.3275 81.338 85.2674 82.649 83.9339C83.9607 82.6256 84.9992 81.0702 85.7041 79.358C86.409 77.6457 86.7663 75.8107 86.7553 73.9595C86.7313 70.2023 85.2226 66.6067 82.5574 63.9546C79.8922 61.3025 76.2863 59.8085 72.5238 59.7977Z" fill="url(#paint0_linear_1_2084)"/>
<defs>
<linearGradient id="paint0_linear_1_2084" x1="101.49" y1="7.99576" x2="41.8976" y2="215.027" gradientUnits="userSpaceOnUse">
<stop stop-color="#5F77FF"/>
<stop offset="1" stop-color="#5F77FF" stop-opacity="0"/>
</linearGradient>
</defs>
</svg>
