<svg width="74" height="65" viewBox="0 0 74 65" fill="none" xmlns="http://www.w3.org/2000/svg">
<path d="M57.6442 0.874444C53.7805 0.212292 49.8063 0.787887 46.2892 2.51903C42.7721 4.25017 39.892 7.04829 38.06 10.5139C37.7484 11.0989 37.475 11.7094 37.1825 12.3516C37.1485 12.4323 37.0914 12.5011 37.0184 12.5496C36.9455 12.598 36.8599 12.6238 36.7724 12.6238C36.6848 12.6238 36.5992 12.598 36.5263 12.5496C36.4533 12.5011 36.3963 12.4323 36.3623 12.3516C33.3483 4.8422 26.1186 0.270352 17.8144 0.683657C9.51014 1.09696 -24.8831 17.2159 33.9905 63.8557C34.7844 64.486 35.7683 64.8291 36.7819 64.8291C37.7956 64.8291 38.7795 64.486 39.5733 63.8557L41.4045 62.4187C94.759 20.7385 67.1439 2.47679 57.6442 0.874444Z" fill="#BDC7FD"/>
<path d="M44.9836 40.7302C41.8921 40.2352 40.2201 41.2505 40.796 44.6956V44.7057C41.3415 47.9387 40.0888 49.439 36.6992 48.6409C33.0469 49.53 32.3498 47.4892 32.7943 44.524C33.259 41.4072 32.0215 40.22 28.9299 40.71C25.8384 41.2 24.5856 40.1846 24.626 36.7445C24.6614 33.4711 25.611 32.1426 28.844 32.7033C32.3447 33.3145 33.249 31.5163 32.7691 28.4853C32.269 25.3635 33.5319 24.535 36.6234 24.5704C39.7149 24.6058 41.4072 25.2018 40.8061 28.6469C40.2353 31.9304 41.6749 33.2488 44.8978 32.6881C48.4086 32.0819 48.8835 33.8854 48.939 36.9163C48.9946 40.0331 48.0752 41.2253 44.9836 40.7302Z" fill="#5F77FF"/>
</svg>
