<svg width="74" height="65" viewBox="0 0 74 65" fill="none" xmlns="http://www.w3.org/2000/svg">
<path d="M57.6438 0.874444C53.7801 0.212292 49.8059 0.787887 46.2888 2.51903C42.7717 4.25017 39.8916 7.04829 38.0596 10.5139C37.748 11.0989 37.4746 11.7094 37.1821 12.3516C37.1481 12.4323 37.091 12.5011 37.018 12.5496C36.9451 12.598 36.8595 12.6238 36.772 12.6238C36.6844 12.6238 36.5988 12.598 36.5258 12.5496C36.4529 12.5011 36.3958 12.4323 36.3618 12.3516C33.3479 4.8422 26.1182 0.270352 17.814 0.683657C9.50972 1.09696 -24.8835 17.2159 33.9901 63.8557C34.784 64.486 35.7678 64.8291 36.7815 64.8291C37.7952 64.8291 38.779 64.486 39.5729 63.8557L41.4041 62.4187C94.7586 20.7385 67.1435 2.47679 57.6438 0.874444Z" fill="#5F77FF"/>
<path d="M57.6438 0.874444C53.7801 0.212292 49.8059 0.787887 46.2888 2.51903C42.7717 4.25017 39.8916 7.04829 38.0596 10.5139C37.748 11.0989 37.4746 11.7094 37.1821 12.3516C37.1481 12.4323 37.091 12.5011 37.018 12.5496C36.9451 12.598 36.8595 12.6238 36.772 12.6238C36.6844 12.6238 36.5988 12.598 36.5258 12.5496C36.4529 12.5011 36.3958 12.4323 36.3618 12.3516C33.3479 4.8422 26.1182 0.270352 17.814 0.683657C9.50972 1.09696 -24.8835 17.2159 33.9901 63.8557C34.784 64.486 35.7678 64.8291 36.7815 64.8291C37.7952 64.8291 38.779 64.486 39.5729 63.8557L41.4041 62.4187C94.7586 20.7385 67.1435 2.47679 57.6438 0.874444Z" fill="white"/>
<g filter="url(#filter0_d_1_1628)">
<path d="M44.9832 40.7302C41.8917 40.2352 40.2197 41.2505 40.7955 44.6956V44.7057C41.3411 47.9387 40.0883 49.439 36.6988 48.6409C33.0465 49.53 32.3493 47.4892 32.7939 44.524C33.2586 41.4072 32.021 40.22 28.9295 40.71C25.838 41.2 24.5852 40.1846 24.6256 36.7445C24.6609 33.4711 25.6106 32.1426 28.8436 32.7033C32.3443 33.3145 33.2485 31.5163 32.7686 28.4853C32.2685 25.3635 33.5314 24.535 36.623 24.5704C39.7145 24.6058 41.4068 25.2018 40.8057 28.6469C40.2348 31.9304 41.6745 33.2488 44.8974 32.6881C48.4082 32.0819 48.883 33.8854 48.9386 36.9163C48.9942 40.0331 48.0748 41.2253 44.9832 40.7302Z" fill="#BDC7FD"/>
<path d="M44.9832 40.7302C41.8917 40.2352 40.2197 41.2505 40.7955 44.6956V44.7057C41.3411 47.9387 40.0883 49.439 36.6988 48.6409C33.0465 49.53 32.3493 47.4892 32.7939 44.524C33.2586 41.4072 32.021 40.22 28.9295 40.71C25.838 41.2 24.5852 40.1846 24.6256 36.7445C24.6609 33.4711 25.6106 32.1426 28.8436 32.7033C32.3443 33.3145 33.2485 31.5163 32.7686 28.4853C32.2685 25.3635 33.5314 24.535 36.623 24.5704C39.7145 24.6058 41.4068 25.2018 40.8057 28.6469C40.2348 31.9304 41.6745 33.2488 44.8974 32.6881C48.4082 32.0819 48.883 33.8854 48.9386 36.9163C48.9942 40.0331 48.0748 41.2253 44.9832 40.7302Z" fill="#5F77FF"/>
</g>
<defs>
<filter id="filter0_d_1_1628" x="17.6246" y="21.5693" width="38.3163" height="38.2825" filterUnits="userSpaceOnUse" color-interpolation-filters="sRGB">
<feFlood flood-opacity="0" result="BackgroundImageFix"/>
<feColorMatrix in="SourceAlpha" type="matrix" values="0 0 0 0 0 0 0 0 0 0 0 0 0 0 0 0 0 0 127 0" result="hardAlpha"/>
<feOffset dy="4"/>
<feGaussianBlur stdDeviation="3.5"/>
<feComposite in2="hardAlpha" operator="out"/>
<feColorMatrix type="matrix" values="0 0 0 0 0 0 0 0 0 0 0 0 0 0 0 0 0 0 0.13 0"/>
<feBlend mode="normal" in2="BackgroundImageFix" result="effect1_dropShadow_1_1628"/>
<feBlend mode="normal" in="SourceGraphic" in2="effect1_dropShadow_1_1628" result="shape"/>
</filter>
</defs>
</svg>
