<svg width="74" height="66" viewBox="0 0 74 66" fill="none" xmlns="http://www.w3.org/2000/svg">
<path d="M58.1149 1.12371C54.2512 0.461559 50.277 1.03715 46.7599 2.7683C43.2428 4.49944 40.3627 7.29755 38.5307 10.7632C38.2191 11.3482 37.9457 11.9587 37.6532 12.6009C37.6192 12.6816 37.562 12.7504 37.4891 12.7988C37.4161 12.8472 37.3306 12.873 37.243 12.873C37.1555 12.873 37.0699 12.8472 36.9969 12.7988C36.924 12.7504 36.8669 12.6816 36.8329 12.6009C33.819 5.09146 26.5893 0.51962 18.285 0.932924C9.98079 1.34623 -24.4125 17.4652 34.4612 64.105C35.2551 64.7353 36.2389 65.0783 37.2526 65.0783C38.2663 65.0783 39.2501 64.7353 40.044 64.105L41.8752 62.668C95.2296 20.9878 67.6145 2.72606 58.1149 1.12371Z" fill="#5F77FF"/>
<g filter="url(#filter0_d_1_1646)">
<path d="M45.4543 40.9793C42.3628 40.4842 40.6907 41.4995 41.2666 44.9446V44.9548C41.8122 48.1877 40.5594 49.6881 37.1698 48.8899C33.5176 49.779 32.8204 47.7382 33.2649 44.773C33.7297 41.6562 32.4921 40.469 29.4006 40.959C26.309 41.449 25.0562 40.4336 25.0966 36.9935C25.132 33.7202 26.0817 32.3916 29.3147 32.9523C32.8154 33.5636 33.7196 31.7653 33.2397 28.7344C32.7396 25.6125 34.0025 24.7841 37.094 24.8194C40.1856 24.8548 41.8779 25.4508 41.2767 28.8959C40.7059 32.1794 42.1456 33.4979 45.3685 32.9372C48.8793 32.331 49.3541 34.1344 49.4097 37.1653C49.4652 40.2821 48.5458 41.4743 45.4543 40.9793Z" fill="#BDC7FD"/>
</g>
<defs>
<filter id="filter0_d_1_1646" x="18.0957" y="21.8184" width="38.3163" height="38.2825" filterUnits="userSpaceOnUse" color-interpolation-filters="sRGB">
<feFlood flood-opacity="0" result="BackgroundImageFix"/>
<feColorMatrix in="SourceAlpha" type="matrix" values="0 0 0 0 0 0 0 0 0 0 0 0 0 0 0 0 0 0 127 0" result="hardAlpha"/>
<feOffset dy="4"/>
<feGaussianBlur stdDeviation="3.5"/>
<feComposite in2="hardAlpha" operator="out"/>
<feColorMatrix type="matrix" values="0 0 0 0 0 0 0 0 0 0 0 0 0 0 0 0 0 0 0.13 0"/>
<feBlend mode="normal" in2="BackgroundImageFix" result="effect1_dropShadow_1_1646"/>
<feBlend mode="normal" in="SourceGraphic" in2="effect1_dropShadow_1_1646" result="shape"/>
</filter>
</defs>
</svg>
