<svg width="73" height="65" viewBox="0 0 73 65" fill="none" xmlns="http://www.w3.org/2000/svg">
<path d="M36.357 64.5198C27.5399 64.5198 18.7228 64.5701 9.90074 64.5198C3.69913 64.4745 0.671295 61.502 0.641117 55.396C0.574055 42.7547 0.574055 30.1117 0.641117 17.467C0.676325 11.6376 3.74444 8.72548 9.69456 8.61986C13.5171 8.54944 17.3497 8.48899 21.1723 8.64491C23.6016 8.7455 24.854 8.25264 24.6931 5.42596C24.4818 2.17175 26.3227 0.582323 29.6021 0.607471C34.2646 0.642679 38.9221 0.607471 43.5796 0.607471C46.7885 0.607471 48.7702 2.04092 48.5489 5.37057C48.3679 8.11679 49.4895 8.75556 51.9943 8.64491C55.8118 8.46887 59.6444 8.5444 63.472 8.60979C69.402 8.71541 72.5254 11.6276 72.5254 17.4118C72.6126 30.2207 72.6126 43.0296 72.5254 55.8386C72.4802 61.4115 69.4121 64.4393 63.8291 64.5047C54.66 64.6003 45.506 64.5198 36.357 64.5198ZM36.0753 56.5277C43.5595 56.5277 51.0436 56.4069 58.5228 56.5729C62.7125 56.6684 64.6439 55.1092 64.5584 50.7736C64.4226 41.2977 64.4075 31.8167 64.5584 22.3408C64.6339 17.9498 62.6421 16.5114 58.5228 16.5416C43.8931 16.6523 29.26 16.6523 14.6236 16.5416C10.4389 16.5064 8.50249 18.0052 8.58799 22.3458C8.72379 31.8217 8.73888 41.3027 8.58799 50.7736C8.51758 55.1645 10.5093 56.6584 14.6236 56.5779C21.7758 56.432 28.9281 56.5376 36.0753 56.5376V56.5277Z" fill="#BDC7FD"/>
<path d="M44.7325 40.5605C41.6543 40.0676 39.9895 41.0785 40.5629 44.5088V44.5188C41.1061 47.7378 39.8588 49.2317 36.4838 48.437C32.8474 49.3222 32.1532 47.2903 32.5958 44.3378C33.0586 41.2345 31.8263 40.0525 28.7482 40.5404C25.67 41.0283 24.4226 40.0173 24.4629 36.592C24.4981 33.3328 25.4436 32.01 28.6626 32.5683C32.1482 33.1769 33.0485 31.3864 32.5707 28.3686C32.0728 25.2602 33.3302 24.4353 36.4084 24.4706C39.4865 24.5058 41.1715 25.0992 40.573 28.5294C40.0046 31.7987 41.4381 33.1115 44.647 32.5532C48.1426 31.9496 48.6154 33.7453 48.6708 36.7631C48.7261 39.8664 47.8106 41.0534 44.7325 40.5605Z" fill="#5F77FF"/>
</svg>
