<svg width="236" height="59" viewBox="0 0 236 59" fill="none" xmlns="http://www.w3.org/2000/svg">
<path d="M107.797 38.6524L115.757 15.4924H118.197L107.837 44.5724L99.2769 20.4524L90.7169 44.5724L80.3569 15.4924H82.7969L90.8769 38.6524L99.2769 14.4124L107.797 38.6524ZM125.619 43.8924C123.966 43.8924 122.499 43.4791 121.219 42.6524C119.939 41.8258 118.926 40.6924 118.179 39.2524C117.459 37.7858 117.099 36.1191 117.099 34.2524C117.099 32.3858 117.472 30.7324 118.219 29.2924C118.966 27.8524 120.006 26.7324 121.339 25.9324C122.672 25.1058 124.206 24.6924 125.939 24.6924C127.619 24.6924 129.086 25.0791 130.339 25.8524C131.619 26.6258 132.606 27.7058 133.299 29.0924C134.019 30.4524 134.379 32.0258 134.379 33.8124C134.379 33.9724 134.366 34.1458 134.339 34.3324C134.339 34.5191 134.326 34.6791 134.299 34.8124H118.419V33.0124H132.739L131.859 34.2524C131.912 34.1191 131.966 33.9458 132.019 33.7324C132.099 33.4924 132.139 33.2658 132.139 33.0524C132.139 31.7991 131.859 30.6791 131.299 29.6924C130.766 28.7058 130.032 27.9324 129.099 27.3724C128.166 26.8124 127.112 26.5324 125.939 26.5324C124.579 26.5324 123.392 26.8524 122.379 27.4924C121.392 28.1058 120.619 28.9858 120.059 30.1324C119.499 31.2524 119.219 32.5858 119.219 34.1324C119.219 35.7058 119.486 37.0791 120.019 38.2524C120.579 39.4258 121.352 40.3324 122.339 40.9724C123.352 41.6124 124.526 41.9324 125.859 41.9324C127.272 41.9324 128.499 41.6258 129.539 41.0124C130.606 40.3991 131.552 39.4391 132.379 38.1324L134.059 39.2124C133.019 40.8124 131.806 41.9991 130.419 42.7724C129.059 43.5191 127.459 43.8924 125.619 43.8924ZM139.09 12.2924H141.17V43.4924H139.09V12.2924ZM147.488 12.2924H149.568V43.4924H147.488V12.2924ZM175.687 15.4924H181.207V44.8924L161.287 26.1324V43.4924H155.767V14.0924L175.687 32.8524V15.4924ZM195.49 43.8924C193.49 43.8924 191.743 43.4924 190.25 42.6924C188.757 41.8924 187.597 40.7858 186.77 39.3724C185.97 37.9324 185.57 36.2391 185.57 34.2924C185.57 32.3191 185.97 30.6258 186.77 29.2124C187.597 27.7724 188.757 26.6658 190.25 25.8924C191.743 25.0924 193.503 24.6924 195.53 24.6924C197.557 24.6924 199.277 25.0658 200.69 25.8124C202.13 26.5324 203.223 27.5991 203.97 29.0124C204.717 30.3991 205.09 32.0791 205.09 34.0524C205.09 34.2924 205.077 34.5458 205.05 34.8124C205.05 35.0791 205.037 35.2924 205.01 35.4524H188.53V32.2524H200.49L199.09 34.0924C199.197 33.9324 199.29 33.7191 199.37 33.4524C199.477 33.1591 199.53 32.9191 199.53 32.7324C199.53 31.8258 199.357 31.0524 199.01 30.4124C198.69 29.7724 198.223 29.2658 197.61 28.8924C196.997 28.5191 196.277 28.3324 195.45 28.3324C194.437 28.3324 193.583 28.5591 192.89 29.0124C192.223 29.4391 191.703 30.0924 191.33 30.9724C190.983 31.8258 190.797 32.8924 190.77 34.1724C190.77 35.3991 190.943 36.4391 191.29 37.2924C191.663 38.1458 192.21 38.7991 192.93 39.2524C193.65 39.7058 194.517 39.9324 195.53 39.9324C196.677 39.9324 197.65 39.7191 198.45 39.2924C199.277 38.8391 199.957 38.1724 200.49 37.2924L205.01 38.6924C204.05 40.4258 202.77 41.7324 201.17 42.6124C199.597 43.4658 197.703 43.8924 195.49 43.8924ZM209.918 37.1324C210.691 37.8524 211.411 38.4391 212.078 38.8924C212.744 39.3191 213.371 39.6391 213.958 39.8524C214.571 40.0658 215.144 40.1724 215.678 40.1724C216.371 40.1724 216.904 40.0258 217.278 39.7324C217.651 39.4124 217.838 38.9858 217.838 38.4524C217.838 37.9724 217.678 37.5724 217.358 37.2524C217.064 36.9058 216.624 36.5991 216.038 36.3324C215.451 36.0658 214.704 35.7858 213.798 35.4924C212.944 35.1724 212.118 34.7991 211.318 34.3724C210.518 33.9191 209.851 33.3324 209.318 32.6124C208.811 31.8658 208.558 30.9191 208.558 29.7724C208.558 28.6791 208.851 27.7591 209.438 27.0124C210.024 26.2391 210.811 25.6658 211.798 25.2924C212.811 24.8924 213.931 24.6924 215.158 24.6924C216.198 24.6924 217.171 24.8258 218.078 25.0924C218.984 25.3591 219.824 25.7191 220.598 26.1724C221.371 26.5991 222.051 27.1058 222.638 27.6924L220.358 30.8924C219.691 30.1724 218.891 29.5858 217.958 29.1324C217.051 28.6791 216.158 28.4524 215.278 28.4524C214.691 28.4524 214.224 28.5724 213.878 28.8124C213.558 29.0258 213.398 29.3591 213.398 29.8124C213.398 30.2124 213.558 30.5724 213.878 30.8924C214.224 31.1858 214.704 31.4524 215.318 31.6924C215.958 31.9324 216.678 32.2258 217.478 32.5724C218.464 32.9458 219.371 33.3724 220.198 33.8524C221.051 34.3058 221.731 34.8791 222.238 35.5724C222.744 36.2658 222.998 37.1724 222.998 38.2924C222.998 40.1324 222.398 41.5724 221.198 42.6124C219.998 43.6258 218.344 44.1324 216.238 44.1324C214.931 44.1324 213.731 43.9591 212.638 43.6124C211.571 43.2658 210.598 42.8124 209.718 42.2524C208.864 41.6658 208.091 41.0391 207.398 40.3724L209.918 37.1324ZM224.216 25.0924H235.576V29.4524H224.216V25.0924ZM227.376 18.6924H232.376V43.4924H227.376V18.6924Z" fill="white"/>
<path d="M58.5971 8.88685C58.5328 8.61349 58.3774 8.36977 58.156 8.19531C57.9347 8.02084 57.6605 7.92589 57.3779 7.92588H43.9042C43.6268 7.92609 43.3573 8.01782 43.138 8.18669C42.9188 8.35556 42.7622 8.59199 42.6929 8.85887L40.9713 15.4022L31.9972 4.72418C31.859 4.55988 31.6806 4.43375 31.4791 4.35803C31.2776 4.2823 31.0598 4.25953 30.8468 4.29189C30.6337 4.32408 30.4325 4.41044 30.2627 4.54257C30.093 4.67469 29.9605 4.84812 29.878 5.04607L20.4642 27.6896L3.03396 19.5431C2.76184 19.4163 2.4529 19.391 2.16355 19.4717C1.87419 19.5525 1.62376 19.7341 1.45797 19.9831C1.29196 20.2323 1.2218 20.5326 1.26031 20.829C1.29882 21.1253 1.4434 21.398 1.66766 21.5972L16.9334 35.1395L26.9936 54.0463C27.0934 54.2343 27.2401 54.3938 27.4196 54.5095C27.599 54.6252 27.8053 54.6932 28.0188 54.7072H28.1001C28.3001 54.7075 28.4972 54.6603 28.675 54.5694C28.8529 54.4785 29.0062 54.3466 29.1221 54.1848L48.9641 26.4378C48.9829 26.4114 48.9985 26.3819 49.0157 26.3539C49.0329 26.3259 49.0423 26.3119 49.0548 26.2885C49.0743 26.2496 49.0916 26.2096 49.1065 26.1688C49.1065 26.1501 49.1237 26.1315 49.13 26.1113C49.1504 26.0504 49.1661 25.988 49.1769 25.9247C49.1777 25.9102 49.1777 25.8957 49.1769 25.8811C49.1842 25.8353 49.1884 25.7891 49.1895 25.7427L49.4195 14.4505L57.9241 10.2832C58.1786 10.1603 58.3837 9.95531 58.5059 9.70173C58.6281 9.44815 58.6602 9.16091 58.5971 8.88685ZM46.6947 10.4138V24.7864L42.156 26.0942L42.8212 18.2649L44.8777 10.4154L46.6947 10.4138ZM31.4103 7.89479L40.2858 18.4577L39.6989 25.3696L27.5837 24.4786C27.4134 24.4655 27.2423 24.4872 27.0808 24.5423C26.9193 24.5974 26.7709 24.6847 26.6446 24.7989L23.0043 28.0908L31.4103 7.89479ZM36.7503 27.6429L22.7679 31.6688L27.9327 26.9945L36.7503 27.6429ZM20.4313 30.417L17.9272 32.6795L9.7497 25.4271L20.4313 30.417ZM28.2567 51.0981L19.7583 35.1286L44.8417 27.9073L28.2567 51.0981ZM49.1942 11.7915V10.4138H52.0113L49.1942 11.7915Z" fill="white" stroke="white"/>
</svg>
