<svg width="161" height="44" viewBox="0 0 161 44" fill="none" xmlns="http://www.w3.org/2000/svg">
<path d="M64.8066 29.3268L70.7766 11.9568H72.6066L64.8366 33.7668L58.4166 15.6768L51.9966 33.7668L44.2266 11.9568H46.0566L52.1166 29.3268L58.4166 11.1468L64.8066 29.3268ZM78.1733 33.2568C76.9333 33.2568 75.8333 32.9468 74.8733 32.3268C73.9133 31.7068 73.1533 30.8568 72.5933 29.7768C72.0533 28.6768 71.7833 27.4268 71.7833 26.0268C71.7833 24.6268 72.0633 23.3868 72.6233 22.3068C73.1833 21.2268 73.9633 20.3868 74.9633 19.7868C75.9633 19.1668 77.1133 18.8568 78.4133 18.8568C79.6733 18.8568 80.7733 19.1468 81.7133 19.7268C82.6733 20.3068 83.4133 21.1168 83.9333 22.1568C84.4733 23.1768 84.7433 24.3568 84.7433 25.6968C84.7433 25.8168 84.7333 25.9468 84.7133 26.0868C84.7133 26.2268 84.7033 26.3468 84.6833 26.4468H72.7733V25.0968H83.5133L82.8533 26.0268C82.8933 25.9268 82.9333 25.7968 82.9733 25.6368C83.0333 25.4568 83.0633 25.2868 83.0633 25.1268C83.0633 24.1868 82.8533 23.3468 82.4333 22.6068C82.0333 21.8668 81.4833 21.2868 80.7833 20.8668C80.0833 20.4468 79.2933 20.2368 78.4133 20.2368C77.3933 20.2368 76.5033 20.4768 75.7433 20.9568C75.0033 21.4168 74.4233 22.0768 74.0033 22.9368C73.5833 23.7768 73.3733 24.7768 73.3733 25.9368C73.3733 27.1168 73.5733 28.1468 73.9733 29.0268C74.3933 29.9068 74.9733 30.5868 75.7133 31.0668C76.4733 31.5468 77.3533 31.7868 78.3533 31.7868C79.4133 31.7868 80.3333 31.5568 81.1133 31.0968C81.9133 30.6368 82.6233 29.9168 83.2433 28.9368L84.5033 29.7468C83.7233 30.9468 82.8133 31.8368 81.7733 32.4168C80.7533 32.9768 79.5533 33.2568 78.1733 33.2568ZM88.2763 9.55679H89.8363V32.9568H88.2763V9.55679ZM94.5751 9.55679H96.1351V32.9568H94.5751V9.55679ZM115.724 11.9568H119.864V34.0068L104.924 19.9368V32.9568H100.784V10.9068L115.724 24.9768V11.9568ZM130.576 33.2568C129.076 33.2568 127.766 32.9568 126.646 32.3568C125.526 31.7568 124.656 30.9268 124.036 29.8668C123.436 28.7868 123.136 27.5168 123.136 26.0568C123.136 24.5768 123.436 23.3068 124.036 22.2468C124.656 21.1668 125.526 20.3368 126.646 19.7568C127.766 19.1568 129.086 18.8568 130.606 18.8568C132.126 18.8568 133.416 19.1368 134.476 19.6968C135.556 20.2368 136.376 21.0368 136.936 22.0968C137.496 23.1368 137.776 24.3968 137.776 25.8768C137.776 26.0568 137.766 26.2468 137.746 26.4468C137.746 26.6468 137.736 26.8068 137.716 26.9268H125.356V24.5268H134.326L133.276 25.9068C133.356 25.7868 133.426 25.6268 133.486 25.4268C133.566 25.2068 133.606 25.0268 133.606 24.8868C133.606 24.2068 133.476 23.6268 133.216 23.1468C132.976 22.6668 132.626 22.2868 132.166 22.0068C131.706 21.7268 131.166 21.5868 130.546 21.5868C129.786 21.5868 129.146 21.7568 128.626 22.0968C128.126 22.4168 127.736 22.9068 127.456 23.5668C127.196 24.2068 127.056 25.0068 127.036 25.9668C127.036 26.8868 127.166 27.6668 127.426 28.3068C127.706 28.9468 128.116 29.4368 128.656 29.7768C129.196 30.1168 129.846 30.2868 130.606 30.2868C131.466 30.2868 132.196 30.1268 132.796 29.8068C133.416 29.4668 133.926 28.9668 134.326 28.3068L137.716 29.3568C136.996 30.6568 136.036 31.6368 134.836 32.2968C133.656 32.9368 132.236 33.2568 130.576 33.2568ZM141.397 28.1868C141.977 28.7268 142.517 29.1668 143.017 29.5068C143.517 29.8268 143.987 30.0668 144.427 30.2268C144.887 30.3868 145.317 30.4668 145.717 30.4668C146.237 30.4668 146.637 30.3568 146.917 30.1368C147.197 29.8968 147.337 29.5768 147.337 29.1768C147.337 28.8168 147.217 28.5168 146.977 28.2768C146.757 28.0168 146.427 27.7868 145.987 27.5868C145.547 27.3868 144.987 27.1768 144.307 26.9568C143.667 26.7168 143.047 26.4368 142.447 26.1168C141.847 25.7768 141.347 25.3368 140.947 24.7968C140.567 24.2368 140.377 23.5268 140.377 22.6668C140.377 21.8468 140.597 21.1568 141.037 20.5968C141.477 20.0168 142.067 19.5868 142.807 19.3068C143.567 19.0068 144.407 18.8568 145.327 18.8568C146.107 18.8568 146.837 18.9568 147.517 19.1568C148.197 19.3568 148.827 19.6268 149.407 19.9668C149.987 20.2868 150.497 20.6668 150.937 21.1068L149.227 23.5068C148.727 22.9668 148.127 22.5268 147.427 22.1868C146.747 21.8468 146.077 21.6768 145.417 21.6768C144.977 21.6768 144.627 21.7668 144.367 21.9468C144.127 22.1068 144.007 22.3568 144.007 22.6968C144.007 22.9968 144.127 23.2668 144.367 23.5068C144.627 23.7268 144.987 23.9268 145.447 24.1068C145.927 24.2868 146.467 24.5068 147.067 24.7668C147.807 25.0468 148.487 25.3668 149.107 25.7268C149.747 26.0668 150.257 26.4968 150.637 27.0168C151.017 27.5368 151.207 28.2168 151.207 29.0568C151.207 30.4368 150.757 31.5168 149.857 32.2968C148.957 33.0568 147.717 33.4368 146.137 33.4368C145.157 33.4368 144.257 33.3068 143.437 33.0468C142.637 32.7868 141.907 32.4468 141.247 32.0268C140.607 31.5868 140.027 31.1168 139.507 30.6168L141.397 28.1868ZM152.121 19.1568H160.641V22.4268H152.121V19.1568ZM154.491 14.3568H158.241V32.9568H154.491V14.3568Z" fill="#1E1E1E"/>
<path d="M36.5053 11.1792C36.4655 11.0097 36.3691 10.8586 36.2319 10.7505C36.0947 10.6423 35.9247 10.5834 35.7495 10.5834H27.396C27.224 10.5835 27.0569 10.6404 26.921 10.7451C26.7851 10.8498 26.688 10.9964 26.645 11.1618L25.5777 15.2186L20.0139 8.59841C19.9282 8.49655 19.8176 8.41835 19.6927 8.3714C19.5677 8.32445 19.4327 8.31034 19.3007 8.3304C19.1685 8.35036 19.0438 8.4039 18.9386 8.48581C18.8333 8.56773 18.7512 8.67526 18.7001 8.79798L12.8636 22.8365L2.0572 17.7859C1.88849 17.7072 1.69695 17.6916 1.51755 17.7416C1.33816 17.7917 1.1829 17.9043 1.08011 18.0587C0.977188 18.2132 0.933687 18.3993 0.957562 18.5831C0.981437 18.7668 1.07108 18.9359 1.21011 19.0594L10.6746 27.4554L16.9118 39.1773C16.9737 39.2938 17.0646 39.3927 17.1758 39.4644C17.2871 39.5362 17.415 39.5784 17.5473 39.587H17.5978C17.7218 39.5872 17.844 39.5579 17.9542 39.5016C18.0645 39.4452 18.1595 39.3634 18.2314 39.2631L30.5331 22.0605C30.5447 22.0441 30.5544 22.0258 30.5651 22.0084C30.5758 21.9911 30.5816 21.9824 30.5893 21.9679C30.6014 21.9438 30.6121 21.919 30.6214 21.8937C30.6214 21.8821 30.632 21.8706 30.6359 21.858C30.6486 21.8203 30.6583 21.7816 30.665 21.7424C30.6655 21.7334 30.6655 21.7244 30.665 21.7154C30.6695 21.687 30.6721 21.6583 30.6728 21.6295L30.8154 14.6286L36.0881 12.0449C36.2459 11.9687 36.373 11.8416 36.4488 11.6844C36.5246 11.5272 36.5445 11.3491 36.5053 11.1792ZM29.1261 12.1259V21.0367L26.3122 21.8474L26.7246 16.9934L27.9996 12.1269L29.1261 12.1259ZM19.65 10.5641L25.1527 17.113L24.7888 21.3982L17.2776 20.8458C17.172 20.8377 17.0659 20.8511 16.9658 20.8853C16.8657 20.9194 16.7737 20.9736 16.6954 21.0444L14.4384 23.0853L19.65 10.5641ZM22.9607 22.8076L14.2919 25.3036L17.494 22.4056L22.9607 22.8076ZM12.8432 24.5275L11.2907 25.9302L6.22084 21.4339L12.8432 24.5275ZM17.6948 37.3494L12.426 27.4486L27.9773 22.9715L17.6948 37.3494ZM30.6757 12.98V12.1259H32.4223L30.6757 12.98Z" fill="#1E1E1E" stroke="#1E1E1E"/>
</svg>
