<svg width="24" height="31" viewBox="0 0 24 31" fill="none" xmlns="http://www.w3.org/2000/svg">
<path fill-rule="evenodd" clip-rule="evenodd" d="M17.9847 15.7053C21.9289 18.0731 23.7899 21.5081 23.6665 25.9426C23.6571 26.2961 23.6585 26.6519 23.66 27.0079C23.6614 27.3443 23.6628 27.6808 23.6551 28.0158C23.6345 29.4758 22.9646 30.1632 21.4349 30.1763C19.278 30.188 17.122 30.1841 14.9664 30.1802C13.8887 30.1783 12.8111 30.1763 11.7335 30.1763C10.7191 30.1763 9.70466 30.1778 8.69024 30.1792C6.66143 30.1821 4.63262 30.1851 2.60378 30.1763C0.646577 30.1698 0.0291773 29.5697 0.0291773 27.6798C0.0287346 27.392 0.024605 27.1038 0.0204736 26.8155C0.00326811 25.6149 -0.0139683 24.4121 0.234935 23.2278C0.52489 21.7051 1.14929 20.2582 2.06711 18.9824C2.98493 17.7065 4.17537 16.6306 5.56008 15.8253C6.19114 15.4456 6.27348 15.2034 5.81619 14.6207C5.06152 13.6503 4.65646 12.4727 4.66158 11.2643C4.63872 8.35958 4.6204 5.4571 4.63869 2.55242C4.64784 1.15791 5.37946 0.466104 6.82221 0.466104C10.1635 0.450101 13.5108 0.450101 16.8643 0.466104C18.3002 0.474834 19.0684 1.18846 19.0684 2.54805C19.0974 5.41563 19.0974 8.28319 19.0684 11.1508C19.0637 12.4684 18.6175 13.7501 17.7949 14.8083C17.4657 15.2361 17.5 15.4151 17.9847 15.7053ZM11.8295 2.91904H10.1216C7.17649 2.91904 7.17649 2.91906 7.22359 5.71706C7.22395 5.73863 7.22432 5.76037 7.22468 5.78228C7.23611 6.44789 7.42359 6.67048 8.12553 6.65521C9.39959 6.62714 10.6748 6.63249 11.9495 6.63783C12.4591 6.63996 12.9687 6.6421 13.478 6.6421C16.542 6.6421 16.542 6.64208 16.4408 3.7841L16.439 3.73304C16.4162 3.12635 16.2423 2.8994 15.5884 2.91904C14.7592 2.93795 13.9219 2.93165 13.0845 2.92534C12.6658 2.92219 12.2472 2.91904 11.8295 2.91904ZM11.8982 9.15396H9.05384H9.05382C7.08292 9.15396 7.08285 9.15396 7.26119 11.0569C7.547 14.1144 10.5194 16.0436 13.4209 15.0506C15.6479 14.289 16.9901 11.799 16.4276 9.55334C16.3208 9.13029 16.0547 9.14036 15.7804 9.15073C15.7378 9.15234 15.695 9.15396 15.6525 9.15396H11.8982ZM11.7769 27.7037H18.8535V27.7103C19.9573 27.7103 20.4996 27.7103 20.7667 27.4392C21.0296 27.1722 21.0256 26.6425 21.0279 25.5913C21.0393 21.9511 19.3635 19.2778 16.0412 17.5166C15.7865 17.3627 15.4966 17.2695 15.1962 17.2448C14.8958 17.2201 14.5935 17.2647 14.3149 17.3748C12.975 17.868 11.4934 18.1059 10.1856 17.5756C8.55076 16.9165 7.41897 17.5494 6.2506 18.4114C3.20047 20.6614 2.41856 23.7537 2.64721 27.2302C2.68607 27.7901 3.02448 27.7539 3.34363 27.7197C3.41881 27.7117 3.49291 27.7037 3.56179 27.7037H11.7769ZM13.5417 21.5127H14.5729C14.6464 21.5127 14.7191 21.5266 14.787 21.5534C14.8548 21.5803 14.9164 21.6198 14.9683 21.6694C15.0201 21.7191 15.0612 21.7781 15.0891 21.843C15.117 21.9078 15.1311 21.9773 15.1308 22.0474V23.3721C15.1308 23.5133 15.072 23.6488 14.9674 23.7486C14.8627 23.8485 14.7209 23.9046 14.5729 23.9046H13.5417C13.4392 23.9046 13.341 23.9434 13.2685 24.0126C13.196 24.0817 13.1553 24.1756 13.1553 24.2734V25.2576C13.1553 25.3988 13.0966 25.5343 12.992 25.6341C12.8873 25.734 12.7454 25.7901 12.5974 25.7901H11.2072C11.0593 25.7901 10.9174 25.734 10.8128 25.6341C10.7082 25.5343 10.6494 25.3988 10.6494 25.2576V24.2712C10.6494 24.1734 10.6086 24.0795 10.5361 24.0104C10.4637 23.9412 10.3654 23.9024 10.263 23.9024H9.23182C9.08386 23.9024 8.9419 23.8463 8.83727 23.7464C8.73265 23.6466 8.67383 23.5111 8.67383 23.3699V22.0452C8.67383 21.904 8.73265 21.7686 8.83727 21.6687C8.9419 21.5688 9.08386 21.5127 9.23182 21.5127H10.263C10.3137 21.5127 10.364 21.5032 10.4109 21.4847C10.4578 21.4661 10.5003 21.4389 10.5361 21.4047C10.572 21.3704 10.6006 21.3298 10.62 21.285C10.6394 21.2403 10.6494 21.1923 10.6494 21.1439V20.1575C10.6494 20.0163 10.7082 19.8808 10.8128 19.7809C10.9174 19.6811 11.0593 19.625 11.2072 19.625H12.5974C12.7454 19.625 12.8873 19.6811 12.992 19.7809C13.0966 19.8808 13.1553 20.0163 13.1553 20.1575V21.1439C13.1553 21.1923 13.1653 21.2403 13.1848 21.285C13.2042 21.3298 13.2326 21.3704 13.2685 21.4047C13.3044 21.4389 13.347 21.4661 13.3939 21.4847C13.4408 21.5032 13.4909 21.5127 13.5417 21.5127Z" fill="#5F77FF"/>
</svg>
