<svg width="26" height="30" viewBox="0 0 26 30" fill="none" xmlns="http://www.w3.org/2000/svg">
<path d="M13.2845 7.43633C12.4397 7.01115 11.7751 6.29747 11.4111 5.42457C11.0472 4.55167 11.008 3.57723 11.3005 2.67786C11.5712 1.88988 12.0867 1.20904 12.7717 0.734779C13.4568 0.260521 14.2753 0.0176698 15.1081 0.0416599C15.9205 0.0671134 16.7044 0.347784 17.3482 0.8438C17.992 1.33982 18.4632 2.02598 18.695 2.80496C18.9559 3.68808 18.898 4.63483 18.5312 5.47948C18.1645 6.32414 17.5123 7.01295 16.6889 7.42526L16.8436 7.48045C17.4377 7.63381 17.9844 7.93229 18.4349 8.34897C18.8853 8.76566 19.2254 9.28756 19.4244 9.86798C19.8169 10.9705 20.0042 12.1355 19.9771 13.3055C19.9689 13.3777 19.9381 13.4455 19.8889 13.499C19.5048 13.9078 19.2704 14.4347 19.2242 14.9937C19.178 15.5528 19.3229 16.1109 19.6347 16.5772C19.6775 16.6445 19.6951 16.7249 19.6843 16.8039C19.4219 18.531 18.7386 20.167 17.6947 21.5678C17.5287 21.7674 17.4422 22.0213 17.4515 22.2807C17.4515 24.4914 17.4515 26.702 17.4515 28.9126V29.1724H12.4776V22.5958C12.4776 22.4079 12.4776 22.2642 12.7539 22.325C12.7539 22.1758 12.7539 22.0431 12.7539 21.916C12.6664 18.544 11.8818 15.2265 10.4494 12.1725C10.3979 12.0473 10.3348 11.9271 10.2613 11.8134C10.1839 11.6998 10.1337 11.5699 10.1145 11.4338C10.0953 11.2977 10.1079 11.1591 10.1509 11.0286C10.3042 10.1838 10.6503 9.38555 11.1623 8.69628C11.7057 8.04695 12.4543 7.60256 13.2845 7.43633ZM4.08811 10.7025C3.3468 11.7318 2.7638 12.8663 2.35835 14.0683C1.5892 16.1562 1.09494 18.3354 0.888187 20.551C0.849501 20.9986 0.838513 21.4518 0.816406 21.9326H4.33692V29.2H8.33264V21.9491H11.8421V21.7281C11.8034 21.1754 11.7867 20.6227 11.7204 20.0701C11.5034 18.1341 11.0638 16.2295 10.4105 14.3942C9.99139 13.0973 9.37834 11.8712 8.59224 10.7577C8.29381 10.3653 7.93484 10.0171 7.61429 9.65237C8.48138 9.33847 9.20392 8.71889 9.64656 7.90992C10.0892 7.10095 10.2213 6.15824 10.0182 5.25874C9.82933 4.41867 9.35949 3.66828 8.68615 3.13162C8.01282 2.59496 7.17651 2.30429 6.31549 2.30762C5.45359 2.31151 4.61881 2.61023 3.95022 3.15415C3.28162 3.69808 2.81953 4.4544 2.64035 5.29747C2.44788 6.192 2.58568 7.12603 3.02867 7.92665C3.47165 8.72727 4.18976 9.34023 5.04987 9.65237C4.74038 9.97844 4.39223 10.3212 4.10484 10.7025H4.08811ZM25.7139 24.9169V24.6738C25.6612 23.1884 25.3816 21.7197 24.8849 20.3187C24.476 19.1361 24.0006 17.9865 22.9671 17.1741C23.4512 16.995 23.8528 16.6448 24.0962 16.1896C24.3395 15.7344 24.4079 15.2058 24.288 14.7038C24.179 14.2716 23.9355 13.8852 23.5929 13.6002C23.2502 13.3152 22.826 13.1461 22.3812 13.1176C21.9197 13.0928 21.463 13.2214 21.0822 13.4833C20.7013 13.7453 20.4176 14.1257 20.2756 14.5656C20.1265 14.9952 20.1265 15.4624 20.2756 15.8919C20.3786 16.1844 20.5451 16.4504 20.7629 16.6711C20.9807 16.8918 21.2447 17.0617 21.5358 17.1686C21.3661 17.3093 21.2035 17.4588 21.0492 17.6163C20.5988 18.1276 20.2398 18.7128 19.9882 19.3461C19.3465 20.8442 18.9508 22.4361 18.8165 24.0603C18.8165 24.3366 18.8165 24.613 18.8165 24.928H21.0271V29.1834H23.4369V24.9169H25.7139Z" fill="#5F77FF"/>
</svg>
