<svg width="35" height="24" viewBox="0 0 35 24" fill="none" xmlns="http://www.w3.org/2000/svg">
<path fill-rule="evenodd" clip-rule="evenodd" d="M33.5671 0.602307C33.928 0.698976 34.2357 0.935027 34.4225 1.25853C34.5157 1.41839 34.5765 1.59504 34.6014 1.7784C34.6263 1.96175 34.6149 2.14823 34.5677 2.32716C34.5205 2.50609 34.4386 2.67396 34.3265 2.82121C34.2144 2.96846 34.0744 3.09218 33.9145 3.18532L27.7988 6.71613C27.5842 6.83971 27.4061 7.01767 27.2822 7.23205C27.1583 7.44643 27.0931 7.68967 27.0932 7.93727V17.3561C27.0935 17.6037 27.0284 17.8471 26.9045 18.0615C26.7806 18.276 26.6022 18.4539 26.3874 18.5772L17.9747 23.4368C17.7598 23.5597 17.5165 23.6243 17.2689 23.6243C17.0214 23.6243 16.7782 23.5597 16.5633 23.4368L9.55675 19.393C9.32693 19.2595 9.06408 19.1936 8.79847 19.2029C8.53285 19.2122 8.27526 19.2963 8.05534 19.4455L3.03318 22.8187C2.8796 22.9222 2.70714 22.9944 2.52563 23.0312C2.34412 23.0679 2.15706 23.0686 1.97531 23.033C1.79356 22.9974 1.62067 22.9264 1.46641 22.8239C1.31214 22.7215 1.17952 22.5896 1.07627 22.4359C0.972901 22.2821 0.900863 22.1095 0.864283 21.9279C0.827702 21.7463 0.827267 21.5593 0.863061 21.3775C0.898855 21.1957 0.970146 21.0228 1.07285 20.8687C1.17556 20.7145 1.3077 20.5821 1.46164 20.479L6.80417 16.8882C6.99574 16.7586 7.15265 16.5842 7.26126 16.3801C7.36987 16.1759 7.42682 15.9483 7.42719 15.717V9.49372C7.42674 9.24622 7.36139 9.00319 7.23756 8.7889C7.11372 8.5746 6.93579 8.39655 6.72157 8.27258L0.715951 4.79932C0.392447 4.61247 0.156365 4.3048 0.0596968 3.94394C-0.0369716 3.58307 0.013675 3.19858 0.200454 2.87503C0.387367 2.55094 0.695294 2.31432 1.0566 2.21719C1.41791 2.12006 1.80308 2.17034 2.12731 2.35703L7.94525 5.71769C8.15972 5.84181 8.40308 5.90717 8.65087 5.90717C8.89866 5.90717 9.14214 5.84181 9.35661 5.71769L16.5559 1.5613C16.7703 1.43719 17.0137 1.37183 17.2615 1.37183C17.5093 1.37183 17.7526 1.43719 17.9671 1.5613L23.8175 4.93947C24.032 5.06358 24.2755 5.12895 24.5233 5.12895C24.7711 5.12895 25.0144 5.06358 25.2289 4.93947L32.4983 0.743034C32.8218 0.556255 33.2063 0.505639 33.5671 0.602307ZM23.852 16.274C23.9754 16.0597 24.0403 15.8167 24.0403 15.5694V9.3686C24.0406 9.12124 23.9758 8.87817 23.8524 8.66381C23.7289 8.44945 23.5512 8.27136 23.3371 8.14746L17.9671 5.04705C17.7526 4.92294 17.5093 4.8576 17.2615 4.8576C17.0137 4.8576 16.7703 4.92294 16.5559 5.04705L11.1857 8.14746C10.9713 8.27123 10.7933 8.44923 10.6695 8.66357C10.5456 8.8779 10.4803 9.12105 10.4801 9.3686V15.5669C10.4805 15.8144 10.546 16.0575 10.6698 16.2718C10.7937 16.4861 10.9715 16.6641 11.1857 16.7881L16.5559 19.891C16.7707 20.0139 17.0139 20.0785 17.2615 20.0785C17.509 20.0785 17.7522 20.0139 17.9671 19.891L23.3371 16.7906C23.551 16.6665 23.7286 16.4883 23.852 16.274ZM16.6944 15.5274L20.6981 13.2152C21.0217 13.0284 21.4061 12.9778 21.767 13.0745C22.1279 13.1711 22.4356 13.4072 22.6224 13.7307C22.8092 14.0542 22.8598 14.4387 22.7632 14.7996C22.6665 15.1605 22.4304 15.4681 22.1069 15.655L18.1032 17.9697C17.7789 18.1563 17.3939 18.2067 17.0326 18.1095C16.6713 18.0124 16.3633 17.7758 16.1764 17.4517C16.0841 17.2913 16.0241 17.1143 16.0001 16.9308C15.9762 16.7473 15.9887 16.5609 16.0368 16.3822C16.0849 16.2035 16.1677 16.036 16.2805 15.8894C16.3934 15.7427 16.534 15.6197 16.6944 15.5274Z" fill="#5F77FF"/>
</svg>
