<svg width="25" height="31" viewBox="0 0 25 31" fill="none" xmlns="http://www.w3.org/2000/svg">
<path d="M19.7833 18.8226H16.3324V15.5172C16.3934 13.3028 15.6508 11.5313 13.7548 10.9804C13.38 10.8702 13.2024 10.6066 13.2508 10.1162C13.2921 9.71437 13.1522 9.26933 13.6688 9.09002C14.51 8.79621 14.7862 8.00979 14.7754 7.00737C14.7593 5.57071 14.7754 4.13189 14.7754 2.68658C14.7611 1.35362 14.2373 0.629873 13.1611 0.621232C9.81294 0.593867 6.46891 0.593867 3.1291 0.621232C2.13182 0.621232 1.56325 1.32556 1.53993 2.50082C1.50764 4.08007 1.52558 5.66363 1.53993 7.25368C1.53993 8.0876 1.84667 8.76594 2.50674 9.01871C3.0574 9.21963 3.05914 9.61065 3.08066 10.1421C3.10936 10.7902 2.73449 10.8767 2.3632 11.0365C0.711226 11.7559 0.0206871 12.8815 0.0117188 14.9965C0.0117188 15.2125 0.0117188 15.6446 0.0117188 15.6446V27.9589C0.0117188 28.2309 0.0562086 28.5004 0.142653 28.7517C0.229098 29.0031 0.355847 29.2315 0.515576 29.4239C0.675304 29.6163 0.864862 29.7689 1.07356 29.873C1.28225 29.9771 1.50593 30.0307 1.73182 30.0307H19.8013C21.0381 30.0307 22.2243 29.4389 23.0989 28.3855C23.9735 27.3321 24.4648 25.9034 24.4648 24.4137C24.4591 22.9247 23.9628 21.4994 23.085 20.451C22.2071 19.4026 21.0196 18.8168 19.7833 18.8226ZM5.86269 3.06681H8.19446C9.47515 3.06681 10.7577 3.09056 12.0383 3.05384C12.5567 3.03872 12.7558 3.17051 12.7719 3.87047C12.815 6.73732 12.8365 6.73732 10.4401 6.73732C8.3846 6.73732 6.32723 6.72005 4.27169 6.7503C3.75152 6.7503 3.55425 6.62931 3.5381 5.9315C3.48788 3.06681 3.46456 3.06681 5.86269 3.06681ZM10.6608 26.8895C10.8796 27.4966 10.7917 27.6176 10.2787 27.6154C7.74427 27.5981 5.20979 27.5916 2.67534 27.6154C2.15159 27.6154 2.03319 27.3994 2.03319 26.8074V24.8198H5.54521C5.62615 24.8201 5.7063 24.8012 5.78115 24.7641C5.856 24.7269 5.92405 24.6724 5.98137 24.6036C6.03869 24.5347 6.08416 24.4529 6.11519 24.3629C6.14622 24.2728 6.16222 24.1763 6.16222 24.0788V16.9495C6.16222 16.7524 6.09726 16.5634 5.98154 16.424C5.86583 16.2846 5.70885 16.2063 5.54521 16.2063H2.04396V14.9101C2.04396 14.1108 2.32019 13.6139 2.9408 13.3978C3.08429 13.3481 3.22063 13.2747 3.36233 13.2185C5.08784 12.5164 5.13806 12.5142 5.0699 10.369C5.03582 9.35357 5.30663 9.10731 6.10661 9.14835C7.59535 9.22397 9.08772 9.1872 10.5783 9.16128C11.0339 9.16128 11.258 9.31253 11.1917 9.88719C11.1899 9.92317 11.1899 9.95924 11.1917 9.99521C11.111 12.9225 11.337 12.5618 13.2275 13.3373C13.9629 13.6398 14.2875 14.1432 14.2534 15.0786C14.214 16.1588 14.2194 17.239 14.2534 18.3192C14.2714 18.8572 14.0957 19.0429 13.6903 19.1834C10.7325 20.2765 9.45003 23.5171 10.6536 26.8895H10.6608ZM17.2453 27.57H14.84C13.2562 27.4728 12.2248 26.2198 12.2463 24.4655C12.2679 22.7718 13.3064 21.5598 14.8472 21.4712H17.2543L17.2453 27.57Z" fill="#5F77FF"/>
</svg>
