<svg width="25" height="26" viewBox="0 0 25 26" fill="none" xmlns="http://www.w3.org/2000/svg">
<path d="M14.8558 12.3841V13.5461C14.8558 13.67 14.8067 13.7888 14.7191 13.8764C14.6315 13.964 14.5126 14.0132 14.3887 14.0132H13.5254C13.4396 14.0132 13.3572 14.0473 13.2965 14.108C13.2359 14.1686 13.2018 14.2509 13.2018 14.3367V15.202C13.2018 15.3259 13.1526 15.4447 13.065 15.5323C12.9774 15.6199 12.8586 15.6692 12.7347 15.6692H11.5708C11.4469 15.6692 11.328 15.6199 11.2404 15.5323C11.1528 15.4447 11.1037 15.3259 11.1037 15.202V14.3367C11.1037 14.2509 11.0696 14.1686 11.0089 14.108C10.9482 14.0473 10.866 14.0132 10.7802 14.0132H9.91672C9.79284 14.0132 9.67407 13.964 9.58647 13.8764C9.49887 13.7888 9.44962 13.67 9.44962 13.5461V12.3841C9.44962 12.3227 9.46167 12.262 9.48514 12.2053C9.50862 12.1486 9.5431 12.0971 9.58647 12.0538C9.62985 12.0104 9.68132 11.976 9.738 11.9525C9.79467 11.929 9.85538 11.917 9.91672 11.917H10.7802C10.866 11.917 10.9482 11.8829 11.0089 11.8222C11.0696 11.7615 11.1037 11.6792 11.1037 11.5934V10.7281C11.1037 10.6042 11.1528 10.4854 11.2404 10.3978C11.328 10.3102 11.4469 10.261 11.5708 10.261H12.7347C12.8586 10.261 12.9774 10.3102 13.065 10.3978C13.1526 10.4854 13.2018 10.6042 13.2018 10.7281V11.5934C13.2018 11.6792 13.2359 11.7615 13.2965 11.8222C13.3572 11.8829 13.4396 11.917 13.5254 11.917H14.3887C14.4501 11.917 14.5109 11.929 14.5675 11.9525C14.6242 11.976 14.6757 12.0104 14.7191 12.0538C14.7624 12.0971 14.7968 12.1486 14.8203 12.2053C14.8438 12.262 14.8558 12.3227 14.8558 12.3841ZM24.2995 2.3833V5.33146C24.2991 5.96134 24.1308 6.57972 23.8118 7.12284C23.4927 7.66596 23.0346 8.11418 22.4847 8.42129C22.4847 13.4957 22.4847 18.5714 22.4847 23.6483C22.4847 25.2066 21.9104 25.7829 20.3483 25.7848C14.8604 25.7848 9.37687 25.7848 3.89789 25.7848C2.37787 25.7848 1.82651 25.2105 1.82459 23.7C1.82459 20.2248 1.82459 16.7502 1.82459 13.2762C1.82459 11.6566 1.82459 10.0377 1.82459 8.41937C1.27503 8.11249 0.817321 7.66453 0.498636 7.12172C0.17995 6.57891 0.0118807 5.96091 0.0117188 5.33146V2.3833C0.0117188 1.95935 0.180067 1.55277 0.479847 1.25299C0.779627 0.953208 1.18621 0.78479 1.61016 0.78479H22.7068C23.1297 0.78631 23.5348 0.955383 23.8333 1.255C24.1319 1.55461 24.2995 1.96034 24.2995 2.3833ZM13.11 5.33146C13.1105 5.76237 13.2818 6.17547 13.5865 6.48017C13.8912 6.78486 14.3043 6.95627 14.7352 6.95678H15.1641C15.595 6.95627 16.0081 6.78486 16.3128 6.48017C16.6175 6.17547 16.7889 5.76237 16.7894 5.33146V2.69918H13.11V5.33146ZM7.51607 5.33146C7.51658 5.76237 7.68801 6.17547 7.9927 6.48017C8.2974 6.78486 8.71053 6.95627 9.14143 6.95678H9.57021C10.0011 6.95627 10.4142 6.78486 10.7189 6.48017C11.0236 6.17547 11.1951 5.76237 11.1956 5.33146V2.69918H7.51607V5.33146ZM3.97445 6.95678C4.40569 6.95678 4.81928 6.7856 5.12439 6.48084C5.4295 6.17609 5.60117 5.7627 5.60168 5.33146V2.69918H1.92031V5.32572C1.92082 5.75695 2.09249 6.17035 2.3976 6.4751C2.70271 6.77985 3.11631 6.95103 3.54754 6.95103L3.97445 6.95678ZM20.3233 22.7179C20.308 18.103 20.3036 13.4874 20.3099 8.87117C19.8283 8.86813 19.3525 8.7665 18.9116 8.57258C18.4708 8.37866 18.0742 8.09654 17.7466 7.74359C17.417 8.09926 17.0175 8.38299 16.5731 8.57702C16.1287 8.77105 15.649 8.8712 15.1641 8.87117H14.7352C14.2504 8.87097 13.7707 8.77074 13.3264 8.57672C12.882 8.3827 12.4825 8.09907 12.1528 7.74359C11.823 8.09907 11.4234 8.3827 10.9791 8.57672C10.5347 8.77074 10.0551 8.87097 9.57021 8.87117H9.14143C8.65649 8.87144 8.17671 8.7714 7.73228 8.57735C7.28785 8.3833 6.88833 8.09944 6.55888 7.74359C6.22891 8.09931 5.82906 8.38307 5.38435 8.57709C4.93964 8.77112 4.45964 8.87124 3.97445 8.87117C3.97445 10.3548 3.97445 11.8366 3.97445 13.3202C3.97445 16.4751 3.9898 19.6377 3.96108 22.7868C3.96108 23.4129 4.13145 23.5928 4.7632 23.5909C6.34066 23.5833 7.91688 23.5781 9.49178 23.5756V20.0665C9.49178 19.7166 9.5607 19.37 9.69462 19.0467C9.82854 18.7234 10.0248 18.4296 10.2722 18.1822C10.5197 17.9347 10.8135 17.7385 11.1368 17.6045C11.4601 17.4706 11.8066 17.4017 12.1566 17.4017C12.5065 17.4017 12.853 17.4706 13.1763 17.6045C13.4996 17.7385 13.7934 17.9347 14.0409 18.1822C14.2883 18.4296 14.4846 18.7234 14.6186 19.0467C14.7525 19.37 14.8214 19.7166 14.8214 20.0665V23.5775C16.3772 23.5775 17.9342 23.5833 19.4925 23.5947C20.1855 23.5967 20.3252 23.3593 20.3233 22.7179ZM22.3851 2.69918H18.7038V5.32572C18.7042 5.75398 18.8736 6.16481 19.175 6.46907C19.4764 6.77333 19.8855 6.9465 20.3138 6.95103H20.7579C21.1891 6.95103 21.6027 6.77985 21.9078 6.4751C22.2129 6.17035 22.3846 5.75695 22.3851 5.32572V2.69918Z" fill="#5F77FF"/>
</svg>
