<svg width="33" height="26" viewBox="0 0 33 26" fill="none" xmlns="http://www.w3.org/2000/svg">
<path d="M21.1591 15.23C22.4794 13.8417 23.9766 14.2779 25.3804 14.2429C27.0893 14.2011 28.8011 14.2322 30.512 14.2361C31.5807 14.2361 32.3666 14.7005 32.3579 15.8216C32.3452 16.9165 31.6011 17.413 30.512 17.4052C28.8672 17.3926 27.2185 17.4722 25.5786 17.3799C24.4895 17.3236 24.0893 17.7209 23.9328 18.7575C23.6997 20.312 23.2741 21.8383 22.9963 23.3888C22.8195 24.3739 22.5105 25.2512 21.369 25.2677C20.2459 25.2842 19.8796 24.473 19.6679 23.4665C18.641 18.5866 17.5606 13.7231 16.4181 8.48274C15.2892 10.6803 14.9919 12.8099 14.2749 14.784C13.9398 15.7079 13.7153 16.6707 13.4268 17.6112C13.1985 18.3515 12.7739 18.9373 11.9336 18.9626C11.0145 18.9898 10.5229 18.4214 10.2441 17.5917C9.7457 16.1062 9.21817 14.6305 8.59834 12.8507C8.2583 13.5172 8.01542 13.9194 7.84152 14.3439C6.52608 17.4994 5.6624 17.9774 2.32522 17.3993C1.44502 17.2468 0.821304 16.7883 0.816446 15.8741C0.810617 14.8812 1.43919 14.1322 2.41266 14.2847C4.33821 14.5859 4.87935 13.4249 5.38163 11.9763C5.89653 10.4899 6.52608 9.04137 7.13037 7.58408C7.42182 6.87779 7.87358 6.3114 8.72949 6.35706C9.55043 6.40175 10.0177 6.91663 10.2732 7.66373C10.6968 8.90339 11.1301 10.1392 11.6207 11.5566C12.6418 10.1693 12.7623 8.60614 13.2412 7.19258C13.8514 5.39235 14.3896 3.56588 14.9152 1.73844C15.1678 0.864075 15.4981 0.0528636 16.5405 0.048006C17.6636 0.0421768 18.0396 0.825193 18.2523 1.83849C19.1627 6.19771 20.1361 10.5502 21.1591 15.23Z" fill="#5F77FF"/>
</svg>
