<svg width="26" height="21" viewBox="0 0 26 21" fill="none" xmlns="http://www.w3.org/2000/svg">
<mask id="mask0_1_547" style="mask-type:alpha" maskUnits="userSpaceOnUse" x="0" y="0" width="26" height="21">
<rect x="0.824219" y="0.605713" width="24.6152" height="19.7527" fill="#1E1E1E"/>
</mask>
<g mask="url(#mask0_1_547)">
<path d="M19.5226 1.85405L20.2639 3.13814L1.9868 13.6905L1.24543 12.4064C0.981877 11.9499 0.900947 11.4129 1.02045 10.9135C1.13994 10.4141 1.45009 9.9933 1.88264 9.74356L16.8989 1.07395C17.3314 0.824575 17.8507 0.766664 18.3427 0.912952C18.8347 1.05924 19.2591 1.39774 19.5226 1.85405ZM3.35209 16.0552L6.59902 21.679C6.86257 22.1355 7.28716 22.4741 7.77938 22.6203C8.2716 22.7665 8.79113 22.7084 9.22368 22.4586L24.2399 13.789C24.6721 13.5391 24.9819 13.1183 25.1013 12.619C25.2206 12.1198 25.1396 11.583 24.8761 11.1267L21.6304 5.50491L3.35209 16.0552ZM21.5182 10.6617C21.5992 10.802 21.624 10.9669 21.5873 11.1203C21.5506 11.2737 21.4554 11.403 21.3225 11.4798L17.7963 13.5156C17.6633 13.5924 17.5036 13.6103 17.3523 13.5655C17.2009 13.5207 17.0703 13.4169 16.989 13.2767L16.0127 11.5857C15.932 11.4452 15.9073 11.2802 15.9442 11.1267C15.9811 10.9732 16.0765 10.8439 16.2095 10.7671L19.7357 8.73128C19.8685 8.65457 20.0281 8.63669 20.1793 8.6816C20.3305 8.72651 20.461 8.83054 20.5419 8.97077L21.5182 10.6617Z" fill="#1E1E1E"/>
<path d="M19.5226 1.85405L20.2639 3.13814L1.9868 13.6905L1.24543 12.4064C0.981877 11.9499 0.900947 11.4129 1.02045 10.9135C1.13994 10.4141 1.45009 9.9933 1.88264 9.74356L16.8989 1.07395C17.3314 0.824575 17.8507 0.766664 18.3427 0.912952C18.8347 1.05924 19.2591 1.39774 19.5226 1.85405ZM3.35209 16.0552L6.59902 21.679C6.86257 22.1355 7.28716 22.4741 7.77938 22.6203C8.2716 22.7665 8.79113 22.7084 9.22368 22.4586L24.2399 13.789C24.6721 13.5391 24.9819 13.1183 25.1013 12.619C25.2206 12.1198 25.1396 11.583 24.8761 11.1267L21.6304 5.50491L3.35209 16.0552ZM21.5182 10.6617C21.5992 10.802 21.624 10.9669 21.5873 11.1203C21.5506 11.2737 21.4554 11.403 21.3225 11.4798L17.7963 13.5156C17.6633 13.5924 17.5036 13.6103 17.3523 13.5655C17.2009 13.5207 17.0703 13.4169 16.989 13.2767L16.0127 11.5857C15.932 11.4452 15.9073 11.2802 15.9442 11.1267C15.9811 10.9732 16.0765 10.8439 16.2095 10.7671L19.7357 8.73128C19.8685 8.65457 20.0281 8.63669 20.1793 8.6816C20.3305 8.72651 20.461 8.83054 20.5419 8.97077L21.5182 10.6617Z" fill="#1E1E1E"/>
</g>
<path d="M1.9375 20.4597H19.5645" stroke="#1E1E1E" stroke-linecap="round"/>
</svg>
