<svg width="23" height="23" viewBox="0 0 23 23" fill="none" xmlns="http://www.w3.org/2000/svg">
<path d="M21.8071 0.572266H1.05679C0.91944 0.572146 0.783413 0.59907 0.656477 0.651519C0.529541 0.703968 0.414175 0.780904 0.316973 0.877937C0.21977 0.97497 0.142635 1.09021 0.0899645 1.21705C0.0372941 1.3439 0.0101296 1.47987 0.0100098 1.61721C0.0100098 5.66744 0.728237 15.7191 8.44446 20.9548C9.25336 21.5036 10.1084 21.9811 10.9998 22.3821C11.1351 22.4435 11.282 22.4752 11.4306 22.4752C11.5791 22.4752 11.726 22.4435 11.8613 22.3821C12.7529 21.9814 13.6079 21.5038 14.4167 20.9548C22.1329 15.7191 22.8502 5.66744 22.8511 1.61721C22.8509 1.34031 22.7408 1.07481 22.5451 0.878917C22.3494 0.683029 22.084 0.572749 21.8071 0.572266ZM15.7327 13.0369C15.7327 13.5096 15.5721 13.662 15.1011 13.6684C14.6302 13.6748 14.1347 13.6684 13.5862 13.6684C13.5862 14.205 13.5917 14.6723 13.5862 15.145C13.578 15.6616 13.4119 15.8341 12.9045 15.8368C11.931 15.8423 10.9575 15.8423 9.98406 15.8368C9.44287 15.8368 9.29138 15.6771 9.28408 15.1222C9.27861 14.6549 9.28408 14.1868 9.28408 13.6684C8.73651 13.6684 8.24094 13.6638 7.74539 13.6684C7.33289 13.673 7.1239 13.4859 7.1239 13.0642C7.1239 12.0299 7.1239 10.9972 7.1239 9.96589C7.1239 9.57255 7.32193 9.37542 7.71162 9.3736C8.21174 9.3736 8.71552 9.3736 9.28408 9.3736C9.28408 8.868 9.27861 8.38796 9.28408 7.90792C9.29138 7.36035 9.44287 7.20886 9.99775 7.20612C10.9554 7.20064 11.9124 7.20064 12.8689 7.20612C13.4164 7.20612 13.5743 7.37222 13.5807 7.91523C13.5862 8.3834 13.5807 8.85067 13.5807 9.37542C14.1036 9.37542 14.5846 9.37086 15.0655 9.37542C15.5638 9.38181 15.7245 9.53606 15.7281 10.028C15.7372 11.0282 15.7388 12.0299 15.7327 13.0332V13.0369Z" fill="#1E1E1E"/>
</svg>
