<svg width="24" height="21" viewBox="0 0 24 21" fill="none" xmlns="http://www.w3.org/2000/svg">
<path d="M18.1429 1.03497C16.9368 0.828273 15.6963 1.00795 14.5984 1.54833C13.5005 2.08871 12.6015 2.96214 12.0296 4.04395C11.9324 4.22655 11.847 4.41713 11.7557 4.61759C11.7451 4.64277 11.7273 4.66427 11.7045 4.67938C11.6817 4.69449 11.655 4.70254 11.6277 4.70254C11.6004 4.70254 11.5736 4.69449 11.5509 4.67938C11.5281 4.66427 11.5103 4.64277 11.4997 4.61759C10.5589 2.27351 8.30211 0.846397 5.70993 0.975411C3.11774 1.10443 -7.61819 6.13599 10.7593 20.6947C11.0072 20.8915 11.3143 20.9985 11.6307 20.9985C11.9471 20.9985 12.2542 20.8915 12.502 20.6947L13.0736 20.2461C29.7283 7.23558 21.1082 1.53514 18.1429 1.03497ZM14.3439 12.8407C14.3439 13.1385 14.2427 13.2377 13.947 13.2377C13.6512 13.2377 13.3357 13.2377 12.9903 13.2377C12.9903 13.5771 12.9903 13.8728 12.9903 14.1706C12.9903 14.4683 12.8791 14.6052 12.5596 14.6072H10.7196C10.3782 14.6072 10.281 14.506 10.277 14.1567C10.277 13.861 10.277 13.5612 10.277 13.2377C9.93166 13.2377 9.61805 13.2377 9.30644 13.2377C9.04642 13.2377 8.90947 13.1186 8.90947 12.8566C8.90947 12.2043 8.90947 11.5526 8.90947 10.9015C8.90231 10.851 8.90696 10.7994 8.92301 10.7509C8.93907 10.7024 8.96611 10.6583 9.00205 10.6219C9.03798 10.5856 9.08182 10.5581 9.13015 10.5416C9.17847 10.525 9.22997 10.5198 9.28063 10.5264H10.273C10.273 10.2089 10.273 9.90515 10.273 9.60147C10.273 9.25611 10.3743 9.16084 10.7236 9.15886C11.3296 9.15886 11.9337 9.15886 12.5358 9.15886C12.8811 9.15886 12.9804 9.26406 12.9843 9.60743C12.9843 9.90119 12.9843 10.2029 12.9843 10.5264C13.3138 10.5264 13.6175 10.5264 13.9212 10.5264C14.2248 10.5264 14.338 10.6276 14.34 10.9392C14.3479 11.5744 14.3499 12.2076 14.3439 12.8407Z" fill="#1E1E1E"/>
</svg>
