<svg width="23" height="22" viewBox="0 0 23 22" fill="none" xmlns="http://www.w3.org/2000/svg">
<path d="M11.3565 21.1089C8.55929 21.1089 5.76209 21.1248 2.96331 21.1089C0.995867 21.0945 0.0352961 20.1515 0.0257222 18.2144C0.00444677 14.2039 0.00444677 10.193 0.0257222 6.1815C0.0368918 4.33213 1.01024 3.40827 2.8979 3.37476C4.1106 3.35242 5.32648 3.33325 6.53918 3.38271C7.30988 3.41462 7.7072 3.25827 7.65614 2.36151C7.58912 1.32912 8.17313 0.824879 9.2135 0.832857C10.6927 0.844026 12.1703 0.832857 13.6478 0.832857C14.6659 0.832857 15.2946 1.28761 15.2243 2.34394C15.1669 3.21517 15.5227 3.41782 16.3174 3.38271C17.5285 3.32686 18.7443 3.35083 19.9586 3.37157C21.8399 3.40508 22.8308 4.32896 22.8308 6.16397C22.8585 10.2276 22.8585 14.2912 22.8308 18.3548C22.8165 20.1227 21.8431 21.0833 20.0719 21.1041C17.1631 21.1344 14.259 21.1089 11.3565 21.1089ZM11.2671 18.5734C13.6414 18.5734 16.0158 18.5351 18.3885 18.5877C19.7177 18.618 20.3304 18.1234 20.3033 16.7479C20.2602 13.7417 20.2554 10.7339 20.3033 7.72768C20.3272 6.33467 19.6954 5.87835 18.3885 5.88792C13.7473 5.92303 9.10499 5.92303 4.46163 5.88792C3.13405 5.87675 2.51972 6.35222 2.54685 7.72928C2.58993 10.7355 2.59472 13.7433 2.54685 16.7479C2.52451 18.1409 3.15639 18.6148 4.46163 18.5893C6.73066 18.543 8.99968 18.5765 11.2671 18.5765V18.5734ZM12.692 14.7597C12.5101 13.6715 13.0383 13.3508 14.0148 13.5072C14.9914 13.6636 15.2818 13.287 15.2642 12.3024C15.2467 11.3451 15.0967 10.7754 13.9877 10.9669C12.9697 11.144 12.5149 10.7275 12.6952 9.69034C12.8851 8.60211 12.3506 8.41385 11.374 8.40268C10.3975 8.39151 9.99857 8.65319 10.1565 9.63931C10.3081 10.5967 10.0225 11.1647 8.91671 10.9717C7.89549 10.7945 7.59551 11.2142 7.58434 12.2482C7.57158 13.3348 7.9673 13.6556 8.94384 13.5008C9.92039 13.346 10.3113 13.721 10.1645 14.7055C10.0241 15.6422 10.2443 16.2868 11.398 16.006C12.4686 16.2581 12.8644 15.7842 12.692 14.7629V14.7597Z" fill="#1E1E1E"/>
</svg>
